G04 #@! TF.GenerationSoftware,KiCad,Pcbnew,(5.0.2-5)-5*
G04 #@! TF.CreationDate,2019-02-27T22:15:12+01:00*
G04 #@! TF.ProjectId,IkeaTradfriLEDdriver,496b6561-5472-4616-9466-72694c454464,rev?*
G04 #@! TF.SameCoordinates,Original*
G04 #@! TF.FileFunction,Copper,L1,Top*
G04 #@! TF.FilePolarity,Positive*
%FSLAX46Y46*%
G04 Gerber Fmt 4.6, Leading zero omitted, Abs format (unit mm)*
G04 Created by KiCad (PCBNEW (5.0.2-5)-5) date 2019 February 27, Wednesday 22:15:12*
%MOMM*%
%LPD*%
G01*
G04 APERTURE LIST*
G04 #@! TA.AperFunction,ComponentPad*
%ADD10O,2.000000X1.905000*%
G04 #@! TD*
G04 #@! TA.AperFunction,ComponentPad*
%ADD11R,2.000000X1.905000*%
G04 #@! TD*
G04 #@! TA.AperFunction,ComponentPad*
%ADD12R,1.800000X1.100000*%
G04 #@! TD*
G04 #@! TA.AperFunction,Conductor*
%ADD13C,0.100000*%
G04 #@! TD*
G04 #@! TA.AperFunction,ComponentPad*
%ADD14C,1.100000*%
G04 #@! TD*
G04 #@! TA.AperFunction,ComponentPad*
%ADD15O,1.600000X2.400000*%
G04 #@! TD*
G04 #@! TA.AperFunction,ComponentPad*
%ADD16R,1.600000X2.400000*%
G04 #@! TD*
G04 #@! TA.AperFunction,ComponentPad*
%ADD17R,1.600000X1.600000*%
G04 #@! TD*
G04 #@! TA.AperFunction,ComponentPad*
%ADD18C,1.600000*%
G04 #@! TD*
G04 #@! TA.AperFunction,ComponentPad*
%ADD19R,1.800000X1.800000*%
G04 #@! TD*
G04 #@! TA.AperFunction,ComponentPad*
%ADD20O,1.800000X1.800000*%
G04 #@! TD*
G04 #@! TA.AperFunction,ComponentPad*
%ADD21R,1.000000X1.000000*%
G04 #@! TD*
G04 #@! TA.AperFunction,ComponentPad*
%ADD22O,1.000000X1.000000*%
G04 #@! TD*
G04 #@! TA.AperFunction,ComponentPad*
%ADD23R,1.700000X1.700000*%
G04 #@! TD*
G04 #@! TA.AperFunction,ComponentPad*
%ADD24O,1.700000X1.700000*%
G04 #@! TD*
G04 #@! TA.AperFunction,ComponentPad*
%ADD25O,1.600000X1.600000*%
G04 #@! TD*
G04 #@! TA.AperFunction,ComponentPad*
%ADD26C,1.400000*%
G04 #@! TD*
G04 #@! TA.AperFunction,ComponentPad*
%ADD27O,1.400000X1.400000*%
G04 #@! TD*
G04 #@! TA.AperFunction,ComponentPad*
%ADD28C,5.000000*%
G04 #@! TD*
G04 #@! TA.AperFunction,ViaPad*
%ADD29C,4.000000*%
G04 #@! TD*
G04 APERTURE END LIST*
D10*
G04 #@! TO.P,U2,3*
G04 #@! TO.N,+12V*
X123825000Y-93980000D03*
G04 #@! TO.P,U2,2*
G04 #@! TO.N,+3V3*
X123825000Y-96520000D03*
D11*
G04 #@! TO.P,U2,1*
G04 #@! TO.N,GND*
X123825000Y-99060000D03*
G04 #@! TD*
D10*
G04 #@! TO.P,Q1,3*
G04 #@! TO.N,GND*
X153670000Y-80645000D03*
G04 #@! TO.P,Q1,2*
G04 #@! TO.N,Net-(J3-Pad1)*
X153670000Y-78105000D03*
D11*
G04 #@! TO.P,Q1,1*
G04 #@! TO.N,Net-(Q1-Pad1)*
X153670000Y-75565000D03*
G04 #@! TD*
D12*
G04 #@! TO.P,Q2,1*
G04 #@! TO.N,Net-(Q2-Pad1)*
X153905000Y-87630000D03*
D13*
G04 #@! TD*
G04 #@! TO.N,GND*
G04 #@! TO.C,Q2*
G36*
X154556955Y-89621324D02*
X154583650Y-89625284D01*
X154609828Y-89631841D01*
X154635238Y-89640933D01*
X154659634Y-89652472D01*
X154682782Y-89666346D01*
X154704458Y-89682422D01*
X154724454Y-89700546D01*
X154742578Y-89720542D01*
X154758654Y-89742218D01*
X154772528Y-89765366D01*
X154784067Y-89789762D01*
X154793159Y-89815172D01*
X154799716Y-89841350D01*
X154803676Y-89868045D01*
X154805000Y-89895000D01*
X154805000Y-90445000D01*
X154803676Y-90471955D01*
X154799716Y-90498650D01*
X154793159Y-90524828D01*
X154784067Y-90550238D01*
X154772528Y-90574634D01*
X154758654Y-90597782D01*
X154742578Y-90619458D01*
X154724454Y-90639454D01*
X154704458Y-90657578D01*
X154682782Y-90673654D01*
X154659634Y-90687528D01*
X154635238Y-90699067D01*
X154609828Y-90708159D01*
X154583650Y-90714716D01*
X154556955Y-90718676D01*
X154530000Y-90720000D01*
X153280000Y-90720000D01*
X153253045Y-90718676D01*
X153226350Y-90714716D01*
X153200172Y-90708159D01*
X153174762Y-90699067D01*
X153150366Y-90687528D01*
X153127218Y-90673654D01*
X153105542Y-90657578D01*
X153085546Y-90639454D01*
X153067422Y-90619458D01*
X153051346Y-90597782D01*
X153037472Y-90574634D01*
X153025933Y-90550238D01*
X153016841Y-90524828D01*
X153010284Y-90498650D01*
X153006324Y-90471955D01*
X153005000Y-90445000D01*
X153005000Y-89895000D01*
X153006324Y-89868045D01*
X153010284Y-89841350D01*
X153016841Y-89815172D01*
X153025933Y-89789762D01*
X153037472Y-89765366D01*
X153051346Y-89742218D01*
X153067422Y-89720542D01*
X153085546Y-89700546D01*
X153105542Y-89682422D01*
X153127218Y-89666346D01*
X153150366Y-89652472D01*
X153174762Y-89640933D01*
X153200172Y-89631841D01*
X153226350Y-89625284D01*
X153253045Y-89621324D01*
X153280000Y-89620000D01*
X154530000Y-89620000D01*
X154556955Y-89621324D01*
X154556955Y-89621324D01*
G37*
D14*
G04 #@! TO.P,Q2,3*
G04 #@! TO.N,GND*
X153905000Y-90170000D03*
D13*
G04 #@! TD*
G04 #@! TO.N,Net-(Q2-Pad2)*
G04 #@! TO.C,Q2*
G36*
X156626955Y-88351324D02*
X156653650Y-88355284D01*
X156679828Y-88361841D01*
X156705238Y-88370933D01*
X156729634Y-88382472D01*
X156752782Y-88396346D01*
X156774458Y-88412422D01*
X156794454Y-88430546D01*
X156812578Y-88450542D01*
X156828654Y-88472218D01*
X156842528Y-88495366D01*
X156854067Y-88519762D01*
X156863159Y-88545172D01*
X156869716Y-88571350D01*
X156873676Y-88598045D01*
X156875000Y-88625000D01*
X156875000Y-89175000D01*
X156873676Y-89201955D01*
X156869716Y-89228650D01*
X156863159Y-89254828D01*
X156854067Y-89280238D01*
X156842528Y-89304634D01*
X156828654Y-89327782D01*
X156812578Y-89349458D01*
X156794454Y-89369454D01*
X156774458Y-89387578D01*
X156752782Y-89403654D01*
X156729634Y-89417528D01*
X156705238Y-89429067D01*
X156679828Y-89438159D01*
X156653650Y-89444716D01*
X156626955Y-89448676D01*
X156600000Y-89450000D01*
X155350000Y-89450000D01*
X155323045Y-89448676D01*
X155296350Y-89444716D01*
X155270172Y-89438159D01*
X155244762Y-89429067D01*
X155220366Y-89417528D01*
X155197218Y-89403654D01*
X155175542Y-89387578D01*
X155155546Y-89369454D01*
X155137422Y-89349458D01*
X155121346Y-89327782D01*
X155107472Y-89304634D01*
X155095933Y-89280238D01*
X155086841Y-89254828D01*
X155080284Y-89228650D01*
X155076324Y-89201955D01*
X155075000Y-89175000D01*
X155075000Y-88625000D01*
X155076324Y-88598045D01*
X155080284Y-88571350D01*
X155086841Y-88545172D01*
X155095933Y-88519762D01*
X155107472Y-88495366D01*
X155121346Y-88472218D01*
X155137422Y-88450542D01*
X155155546Y-88430546D01*
X155175542Y-88412422D01*
X155197218Y-88396346D01*
X155220366Y-88382472D01*
X155244762Y-88370933D01*
X155270172Y-88361841D01*
X155296350Y-88355284D01*
X155323045Y-88351324D01*
X155350000Y-88350000D01*
X156600000Y-88350000D01*
X156626955Y-88351324D01*
X156626955Y-88351324D01*
G37*
D14*
G04 #@! TO.P,Q2,2*
G04 #@! TO.N,Net-(Q2-Pad2)*
X155975000Y-88900000D03*
G04 #@! TD*
D15*
G04 #@! TO.P,U1,8*
G04 #@! TO.N,N/C*
X141732000Y-79756000D03*
G04 #@! TO.P,U1,4*
G04 #@! TO.N,GND*
X134112000Y-72136000D03*
G04 #@! TO.P,U1,7*
G04 #@! TO.N,+12V*
X139192000Y-79756000D03*
G04 #@! TO.P,U1,3*
G04 #@! TO.N,Net-(D1-Pad1)*
X136652000Y-72136000D03*
G04 #@! TO.P,U1,6*
G04 #@! TO.N,Net-(R3-Pad2)*
X136652000Y-79756000D03*
G04 #@! TO.P,U1,2*
G04 #@! TO.N,Net-(Q2-Pad1)*
X139192000Y-72136000D03*
G04 #@! TO.P,U1,5*
G04 #@! TO.N,N/C*
X134112000Y-79756000D03*
D16*
G04 #@! TO.P,U1,1*
X141732000Y-72136000D03*
G04 #@! TD*
D17*
G04 #@! TO.P,C1,1*
G04 #@! TO.N,+12V*
X128270000Y-91440000D03*
D18*
G04 #@! TO.P,C1,2*
G04 #@! TO.N,GND*
X130770000Y-91440000D03*
G04 #@! TD*
G04 #@! TO.P,C2,1*
G04 #@! TO.N,+12V*
X130175000Y-97155000D03*
G04 #@! TO.P,C2,2*
G04 #@! TO.N,GND*
X130175000Y-102155000D03*
G04 #@! TD*
G04 #@! TO.P,C3,2*
G04 #@! TO.N,GND*
X127080000Y-104695000D03*
G04 #@! TO.P,C3,1*
G04 #@! TO.N,+3V3*
X127080000Y-99695000D03*
G04 #@! TD*
D17*
G04 #@! TO.P,C4,1*
G04 #@! TO.N,+3V3*
X137160000Y-93980000D03*
D18*
G04 #@! TO.P,C4,2*
G04 #@! TO.N,GND*
X137160000Y-88980000D03*
G04 #@! TD*
D19*
G04 #@! TO.P,D1,1*
G04 #@! TO.N,Net-(D1-Pad1)*
X123190000Y-84455000D03*
D20*
G04 #@! TO.P,D1,2*
G04 #@! TO.N,GND*
X123190000Y-71755000D03*
G04 #@! TD*
D21*
G04 #@! TO.P,J2,1*
G04 #@! TO.N,+3V3*
X147955000Y-104140000D03*
D22*
G04 #@! TO.P,J2,2*
G04 #@! TO.N,GND*
X149225000Y-104140000D03*
G04 #@! TO.P,J2,3*
G04 #@! TO.N,pwm*
X150495000Y-104140000D03*
G04 #@! TD*
D23*
G04 #@! TO.P,J3,1*
G04 #@! TO.N,Net-(J3-Pad1)*
X173355000Y-91440000D03*
D24*
G04 #@! TO.P,J3,2*
X173355000Y-93980000D03*
G04 #@! TO.P,J3,3*
X173355000Y-96520000D03*
G04 #@! TO.P,J3,4*
G04 #@! TO.N,GND*
X173355000Y-99060000D03*
G04 #@! TD*
D25*
G04 #@! TO.P,R1,2*
G04 #@! TO.N,+12V*
X128270000Y-84455000D03*
D18*
G04 #@! TO.P,R1,1*
G04 #@! TO.N,Net-(D1-Pad1)*
X128270000Y-71755000D03*
G04 #@! TD*
G04 #@! TO.P,R2,1*
G04 #@! TO.N,+12V*
X131445000Y-84455000D03*
D25*
G04 #@! TO.P,R2,2*
G04 #@! TO.N,Net-(Q2-Pad1)*
X144145000Y-84455000D03*
G04 #@! TD*
D18*
G04 #@! TO.P,R3,1*
G04 #@! TO.N,Net-(Q1-Pad1)*
X148336000Y-71628000D03*
D25*
G04 #@! TO.P,R3,2*
G04 #@! TO.N,Net-(R3-Pad2)*
X148336000Y-84328000D03*
G04 #@! TD*
D26*
G04 #@! TO.P,R4,1*
G04 #@! TO.N,Net-(Q2-Pad2)*
X159385000Y-88900000D03*
D27*
G04 #@! TO.P,R4,2*
G04 #@! TO.N,pwm*
X167005000Y-88900000D03*
G04 #@! TD*
D28*
G04 #@! TO.P,H1,1*
G04 #@! TO.N,+12V*
X108585000Y-76200000D03*
G04 #@! TD*
G04 #@! TO.P,H2,1*
G04 #@! TO.N,GND*
X108585000Y-83185000D03*
G04 #@! TD*
D29*
G04 #@! TO.N,*
X100330000Y-104140000D03*
X100330000Y-74295000D03*
X179705000Y-74295000D03*
X179705000Y-104140000D03*
G04 #@! TD*
M02*
