G04 #@! TF.GenerationSoftware,KiCad,Pcbnew,(5.0.2-5)-5*
G04 #@! TF.CreationDate,2019-02-28T23:12:48+01:00*
G04 #@! TF.ProjectId,IkeaTradfriLEDdriver,496b6561-5472-4616-9466-72694c454464,rev?*
G04 #@! TF.SameCoordinates,Original*
G04 #@! TF.FileFunction,Soldermask,Top*
G04 #@! TF.FilePolarity,Negative*
%FSLAX46Y46*%
G04 Gerber Fmt 4.6, Leading zero omitted, Abs format (unit mm)*
G04 Created by KiCad (PCBNEW (5.0.2-5)-5) date 2019 February 28, Thursday 23:12:48*
%MOMM*%
%LPD*%
G01*
G04 APERTURE LIST*
%ADD10C,0.100000*%
G04 APERTURE END LIST*
D10*
G36*
X85637649Y-166827717D02*
X85676827Y-166831576D01*
X85752227Y-166854448D01*
X85827629Y-166877321D01*
X85966608Y-166951608D01*
X86088422Y-167051578D01*
X86188392Y-167173392D01*
X86262679Y-167312371D01*
X86308424Y-167463174D01*
X86323870Y-167620000D01*
X86308424Y-167776826D01*
X86262679Y-167927629D01*
X86188392Y-168066608D01*
X86088422Y-168188422D01*
X85966608Y-168288392D01*
X85827629Y-168362679D01*
X85752228Y-168385551D01*
X85676827Y-168408424D01*
X85637649Y-168412283D01*
X85559295Y-168420000D01*
X84680705Y-168420000D01*
X84602351Y-168412283D01*
X84563173Y-168408424D01*
X84487772Y-168385551D01*
X84412371Y-168362679D01*
X84273392Y-168288392D01*
X84151578Y-168188422D01*
X84051608Y-168066608D01*
X83977321Y-167927629D01*
X83931576Y-167776826D01*
X83916130Y-167620000D01*
X83931576Y-167463174D01*
X83977321Y-167312371D01*
X84051608Y-167173392D01*
X84151578Y-167051578D01*
X84273392Y-166951608D01*
X84412371Y-166877321D01*
X84487773Y-166854448D01*
X84563173Y-166831576D01*
X84602351Y-166827717D01*
X84680705Y-166820000D01*
X85559295Y-166820000D01*
X85637649Y-166827717D01*
X85637649Y-166827717D01*
G37*
G36*
X78017649Y-166827717D02*
X78056827Y-166831576D01*
X78132227Y-166854448D01*
X78207629Y-166877321D01*
X78346608Y-166951608D01*
X78468422Y-167051578D01*
X78568392Y-167173392D01*
X78642679Y-167312371D01*
X78688424Y-167463174D01*
X78703870Y-167620000D01*
X78688424Y-167776826D01*
X78642679Y-167927629D01*
X78568392Y-168066608D01*
X78468422Y-168188422D01*
X78346608Y-168288392D01*
X78207629Y-168362679D01*
X78132228Y-168385551D01*
X78056827Y-168408424D01*
X78017649Y-168412283D01*
X77939295Y-168420000D01*
X77060705Y-168420000D01*
X76982351Y-168412283D01*
X76943173Y-168408424D01*
X76867772Y-168385551D01*
X76792371Y-168362679D01*
X76653392Y-168288392D01*
X76531578Y-168188422D01*
X76431608Y-168066608D01*
X76357321Y-167927629D01*
X76311576Y-167776826D01*
X76296130Y-167620000D01*
X76311576Y-167463174D01*
X76357321Y-167312371D01*
X76431608Y-167173392D01*
X76531578Y-167051578D01*
X76653392Y-166951608D01*
X76792371Y-166877321D01*
X76867773Y-166854448D01*
X76943173Y-166831576D01*
X76982351Y-166827717D01*
X77060705Y-166820000D01*
X77939295Y-166820000D01*
X78017649Y-166827717D01*
X78017649Y-166827717D01*
G37*
G36*
X73300000Y-168300000D02*
X71700000Y-168300000D01*
X71700000Y-166700000D01*
X73300000Y-166700000D01*
X73300000Y-168300000D01*
X73300000Y-168300000D01*
G37*
G36*
X65194069Y-163034324D02*
X65194072Y-163034325D01*
X65194073Y-163034325D01*
X65380689Y-163090934D01*
X65552676Y-163182862D01*
X65703423Y-163306577D01*
X65827138Y-163457324D01*
X65914930Y-163621573D01*
X65919065Y-163629308D01*
X65975676Y-163815930D01*
X65990000Y-163961364D01*
X65990000Y-166038636D01*
X65975676Y-166184070D01*
X65975675Y-166184073D01*
X65975675Y-166184074D01*
X65919066Y-166370690D01*
X65827138Y-166542676D01*
X65703423Y-166693423D01*
X65552676Y-166817138D01*
X65380690Y-166909066D01*
X65194074Y-166965675D01*
X65194073Y-166965675D01*
X65194070Y-166965676D01*
X65000000Y-166984790D01*
X64805931Y-166965676D01*
X64805928Y-166965675D01*
X64805927Y-166965675D01*
X64619311Y-166909066D01*
X64447325Y-166817138D01*
X64296578Y-166693423D01*
X64172863Y-166542676D01*
X64080935Y-166370690D01*
X64024326Y-166184074D01*
X64024326Y-166184073D01*
X64024325Y-166184070D01*
X64010001Y-166038636D01*
X64010000Y-163961365D01*
X64024324Y-163815931D01*
X64024325Y-163815927D01*
X64080934Y-163629311D01*
X64172862Y-163457324D01*
X64296577Y-163306577D01*
X64447324Y-163182862D01*
X64619310Y-163090934D01*
X64805926Y-163034325D01*
X64805927Y-163034325D01*
X64805930Y-163034324D01*
X65000000Y-163015210D01*
X65194069Y-163034324D01*
X65194069Y-163034324D01*
G37*
G36*
X60990000Y-166980000D02*
X59010000Y-166980000D01*
X59010000Y-163020000D01*
X60990000Y-163020000D01*
X60990000Y-166980000D01*
X60990000Y-166980000D01*
G37*
G36*
X90204183Y-164826900D02*
X90331574Y-164879668D01*
X90446225Y-164956275D01*
X90543725Y-165053775D01*
X90620332Y-165168426D01*
X90673100Y-165295817D01*
X90700000Y-165431055D01*
X90700000Y-165568945D01*
X90673100Y-165704183D01*
X90620332Y-165831574D01*
X90543725Y-165946225D01*
X90446225Y-166043725D01*
X90331574Y-166120332D01*
X90204183Y-166173100D01*
X90068945Y-166200000D01*
X89931055Y-166200000D01*
X89795817Y-166173100D01*
X89668426Y-166120332D01*
X89553775Y-166043725D01*
X89456275Y-165946225D01*
X89379668Y-165831574D01*
X89326900Y-165704183D01*
X89300000Y-165568945D01*
X89300000Y-165431055D01*
X89326900Y-165295817D01*
X89379668Y-165168426D01*
X89456275Y-165053775D01*
X89553775Y-164956275D01*
X89668426Y-164879668D01*
X89795817Y-164826900D01*
X89931055Y-164800000D01*
X90068945Y-164800000D01*
X90204183Y-164826900D01*
X90204183Y-164826900D01*
G37*
G36*
X78017649Y-164287717D02*
X78056827Y-164291576D01*
X78132228Y-164314449D01*
X78207629Y-164337321D01*
X78346608Y-164411608D01*
X78468422Y-164511578D01*
X78568392Y-164633392D01*
X78642679Y-164772371D01*
X78688424Y-164923174D01*
X78703870Y-165080000D01*
X78688424Y-165236826D01*
X78642679Y-165387629D01*
X78568392Y-165526608D01*
X78468422Y-165648422D01*
X78346608Y-165748392D01*
X78207629Y-165822679D01*
X78132227Y-165845552D01*
X78056827Y-165868424D01*
X78017649Y-165872283D01*
X77939295Y-165880000D01*
X77060705Y-165880000D01*
X76982351Y-165872283D01*
X76943173Y-165868424D01*
X76867773Y-165845552D01*
X76792371Y-165822679D01*
X76653392Y-165748392D01*
X76531578Y-165648422D01*
X76431608Y-165526608D01*
X76357321Y-165387629D01*
X76311576Y-165236826D01*
X76296130Y-165080000D01*
X76311576Y-164923174D01*
X76357321Y-164772371D01*
X76431608Y-164633392D01*
X76531578Y-164511578D01*
X76653392Y-164411608D01*
X76792371Y-164337321D01*
X76867772Y-164314449D01*
X76943173Y-164291576D01*
X76982351Y-164287717D01*
X77060705Y-164280000D01*
X77939295Y-164280000D01*
X78017649Y-164287717D01*
X78017649Y-164287717D01*
G37*
G36*
X85637649Y-164287717D02*
X85676827Y-164291576D01*
X85752228Y-164314449D01*
X85827629Y-164337321D01*
X85966608Y-164411608D01*
X86088422Y-164511578D01*
X86188392Y-164633392D01*
X86262679Y-164772371D01*
X86308424Y-164923174D01*
X86323870Y-165080000D01*
X86308424Y-165236826D01*
X86262679Y-165387629D01*
X86188392Y-165526608D01*
X86088422Y-165648422D01*
X85966608Y-165748392D01*
X85827629Y-165822679D01*
X85752227Y-165845552D01*
X85676827Y-165868424D01*
X85637649Y-165872283D01*
X85559295Y-165880000D01*
X84680705Y-165880000D01*
X84602351Y-165872283D01*
X84563173Y-165868424D01*
X84487773Y-165845552D01*
X84412371Y-165822679D01*
X84273392Y-165748392D01*
X84151578Y-165648422D01*
X84051608Y-165526608D01*
X83977321Y-165387629D01*
X83931576Y-165236826D01*
X83916130Y-165080000D01*
X83931576Y-164923174D01*
X83977321Y-164772371D01*
X84051608Y-164633392D01*
X84151578Y-164511578D01*
X84273392Y-164411608D01*
X84412371Y-164337321D01*
X84487772Y-164314449D01*
X84563173Y-164291576D01*
X84602351Y-164287717D01*
X84680705Y-164280000D01*
X85559295Y-164280000D01*
X85637649Y-164287717D01*
X85637649Y-164287717D01*
G37*
G36*
X85637649Y-161747717D02*
X85676827Y-161751576D01*
X85752227Y-161774448D01*
X85827629Y-161797321D01*
X85966608Y-161871608D01*
X86088422Y-161971578D01*
X86188392Y-162093392D01*
X86262679Y-162232371D01*
X86308424Y-162383174D01*
X86323870Y-162540000D01*
X86308424Y-162696826D01*
X86262679Y-162847629D01*
X86188392Y-162986608D01*
X86088422Y-163108422D01*
X85966608Y-163208392D01*
X85827629Y-163282679D01*
X85752228Y-163305551D01*
X85676827Y-163328424D01*
X85637649Y-163332283D01*
X85559295Y-163340000D01*
X84680705Y-163340000D01*
X84602351Y-163332283D01*
X84563173Y-163328424D01*
X84487772Y-163305551D01*
X84412371Y-163282679D01*
X84273392Y-163208392D01*
X84151578Y-163108422D01*
X84051608Y-162986608D01*
X83977321Y-162847629D01*
X83931576Y-162696826D01*
X83916130Y-162540000D01*
X83931576Y-162383174D01*
X83977321Y-162232371D01*
X84051608Y-162093392D01*
X84151578Y-161971578D01*
X84273392Y-161871608D01*
X84412371Y-161797321D01*
X84487773Y-161774448D01*
X84563173Y-161751576D01*
X84602351Y-161747717D01*
X84680705Y-161740000D01*
X85559295Y-161740000D01*
X85637649Y-161747717D01*
X85637649Y-161747717D01*
G37*
G36*
X78017649Y-161747717D02*
X78056827Y-161751576D01*
X78132227Y-161774448D01*
X78207629Y-161797321D01*
X78346608Y-161871608D01*
X78468422Y-161971578D01*
X78568392Y-162093392D01*
X78642679Y-162232371D01*
X78688424Y-162383174D01*
X78703870Y-162540000D01*
X78688424Y-162696826D01*
X78642679Y-162847629D01*
X78568392Y-162986608D01*
X78468422Y-163108422D01*
X78346608Y-163208392D01*
X78207629Y-163282679D01*
X78132228Y-163305551D01*
X78056827Y-163328424D01*
X78017649Y-163332283D01*
X77939295Y-163340000D01*
X77060705Y-163340000D01*
X76982351Y-163332283D01*
X76943173Y-163328424D01*
X76867772Y-163305551D01*
X76792371Y-163282679D01*
X76653392Y-163208392D01*
X76531578Y-163108422D01*
X76431608Y-162986608D01*
X76357321Y-162847629D01*
X76311576Y-162696826D01*
X76296130Y-162540000D01*
X76311576Y-162383174D01*
X76357321Y-162232371D01*
X76431608Y-162093392D01*
X76531578Y-161971578D01*
X76653392Y-161871608D01*
X76792371Y-161797321D01*
X76867773Y-161774448D01*
X76943173Y-161751576D01*
X76982351Y-161747717D01*
X77060705Y-161740000D01*
X77939295Y-161740000D01*
X78017649Y-161747717D01*
X78017649Y-161747717D01*
G37*
G36*
X95166630Y-159282299D02*
X95326855Y-159330903D01*
X95474520Y-159409831D01*
X95603949Y-159516051D01*
X95710169Y-159645480D01*
X95789097Y-159793145D01*
X95837701Y-159953370D01*
X95854112Y-160120000D01*
X95837701Y-160286630D01*
X95789097Y-160446855D01*
X95710169Y-160594520D01*
X95603949Y-160723949D01*
X95474520Y-160830169D01*
X95326855Y-160909097D01*
X95166630Y-160957701D01*
X95041752Y-160970000D01*
X94958248Y-160970000D01*
X94833370Y-160957701D01*
X94673145Y-160909097D01*
X94525480Y-160830169D01*
X94396051Y-160723949D01*
X94289831Y-160594520D01*
X94210903Y-160446855D01*
X94162299Y-160286630D01*
X94145888Y-160120000D01*
X94162299Y-159953370D01*
X94210903Y-159793145D01*
X94289831Y-159645480D01*
X94396051Y-159516051D01*
X94525480Y-159409831D01*
X94673145Y-159330903D01*
X94833370Y-159282299D01*
X94958248Y-159270000D01*
X95041752Y-159270000D01*
X95166630Y-159282299D01*
X95166630Y-159282299D01*
G37*
G36*
X78700000Y-160800000D02*
X76300000Y-160800000D01*
X76300000Y-159200000D01*
X78700000Y-159200000D01*
X78700000Y-160800000D01*
X78700000Y-160800000D01*
G37*
G36*
X85637649Y-159207717D02*
X85676827Y-159211576D01*
X85752227Y-159234448D01*
X85827629Y-159257321D01*
X85966608Y-159331608D01*
X86088422Y-159431578D01*
X86188392Y-159553392D01*
X86262679Y-159692371D01*
X86272023Y-159723174D01*
X86308424Y-159843173D01*
X86323870Y-160000000D01*
X86308424Y-160156827D01*
X86299080Y-160187629D01*
X86262679Y-160307629D01*
X86188392Y-160446608D01*
X86088422Y-160568422D01*
X85966608Y-160668392D01*
X85827629Y-160742679D01*
X85752228Y-160765551D01*
X85676827Y-160788424D01*
X85637649Y-160792283D01*
X85559295Y-160800000D01*
X84680705Y-160800000D01*
X84602351Y-160792283D01*
X84563173Y-160788424D01*
X84487772Y-160765551D01*
X84412371Y-160742679D01*
X84273392Y-160668392D01*
X84151578Y-160568422D01*
X84051608Y-160446608D01*
X83977321Y-160307629D01*
X83940920Y-160187629D01*
X83931576Y-160156827D01*
X83916130Y-160000000D01*
X83931576Y-159843173D01*
X83967977Y-159723174D01*
X83977321Y-159692371D01*
X84051608Y-159553392D01*
X84151578Y-159431578D01*
X84273392Y-159331608D01*
X84412371Y-159257321D01*
X84487773Y-159234448D01*
X84563173Y-159211576D01*
X84602351Y-159207717D01*
X84680705Y-159200000D01*
X85559295Y-159200000D01*
X85637649Y-159207717D01*
X85637649Y-159207717D01*
G37*
G36*
X72617649Y-159087717D02*
X72656827Y-159091576D01*
X72732227Y-159114448D01*
X72807629Y-159137321D01*
X72946608Y-159211608D01*
X73068422Y-159311578D01*
X73168392Y-159433392D01*
X73242679Y-159572371D01*
X73242679Y-159572372D01*
X73279081Y-159692372D01*
X73288424Y-159723174D01*
X73303870Y-159880000D01*
X73288424Y-160036826D01*
X73242679Y-160187629D01*
X73168392Y-160326608D01*
X73068422Y-160448422D01*
X72946608Y-160548392D01*
X72807629Y-160622679D01*
X72732227Y-160645552D01*
X72656827Y-160668424D01*
X72617649Y-160672283D01*
X72539295Y-160680000D01*
X72460705Y-160680000D01*
X72382351Y-160672283D01*
X72343173Y-160668424D01*
X72267773Y-160645552D01*
X72192371Y-160622679D01*
X72053392Y-160548392D01*
X71931578Y-160448422D01*
X71831608Y-160326608D01*
X71757321Y-160187629D01*
X71711576Y-160036826D01*
X71696130Y-159880000D01*
X71711576Y-159723174D01*
X71720920Y-159692372D01*
X71757321Y-159572372D01*
X71757321Y-159572371D01*
X71831608Y-159433392D01*
X71931578Y-159311578D01*
X72053392Y-159211608D01*
X72192371Y-159137321D01*
X72267773Y-159114448D01*
X72343173Y-159091576D01*
X72382351Y-159087717D01*
X72460705Y-159080000D01*
X72539295Y-159080000D01*
X72617649Y-159087717D01*
X72617649Y-159087717D01*
G37*
G36*
X90137224Y-157190128D02*
X90269175Y-157230155D01*
X90390781Y-157295155D01*
X90497370Y-157382630D01*
X90584845Y-157489219D01*
X90649845Y-157610825D01*
X90689872Y-157742776D01*
X90703387Y-157880000D01*
X90689872Y-158017224D01*
X90649845Y-158149175D01*
X90584845Y-158270781D01*
X90497370Y-158377370D01*
X90390781Y-158464845D01*
X90269175Y-158529845D01*
X90137224Y-158569872D01*
X90034390Y-158580000D01*
X89965610Y-158580000D01*
X89862776Y-158569872D01*
X89730825Y-158529845D01*
X89609219Y-158464845D01*
X89502630Y-158377370D01*
X89415155Y-158270781D01*
X89350155Y-158149175D01*
X89310128Y-158017224D01*
X89296613Y-157880000D01*
X89310128Y-157742776D01*
X89350155Y-157610825D01*
X89415155Y-157489219D01*
X89502630Y-157382630D01*
X89609219Y-157295155D01*
X89730825Y-157230155D01*
X89862776Y-157190128D01*
X89965610Y-157180000D01*
X90034390Y-157180000D01*
X90137224Y-157190128D01*
X90137224Y-157190128D01*
G37*
G36*
X95166630Y-156742299D02*
X95326855Y-156790903D01*
X95474520Y-156869831D01*
X95603949Y-156976051D01*
X95710169Y-157105480D01*
X95789097Y-157253145D01*
X95837701Y-157413370D01*
X95854112Y-157580000D01*
X95837701Y-157746630D01*
X95789097Y-157906855D01*
X95710169Y-158054520D01*
X95603949Y-158183949D01*
X95474520Y-158290169D01*
X95326855Y-158369097D01*
X95166630Y-158417701D01*
X95041752Y-158430000D01*
X94958248Y-158430000D01*
X94833370Y-158417701D01*
X94673145Y-158369097D01*
X94525480Y-158290169D01*
X94396051Y-158183949D01*
X94289831Y-158054520D01*
X94210903Y-157906855D01*
X94162299Y-157746630D01*
X94145888Y-157580000D01*
X94162299Y-157413370D01*
X94210903Y-157253145D01*
X94289831Y-157105480D01*
X94396051Y-156976051D01*
X94525480Y-156869831D01*
X94673145Y-156790903D01*
X94833370Y-156742299D01*
X94958248Y-156730000D01*
X95041752Y-156730000D01*
X95166630Y-156742299D01*
X95166630Y-156742299D01*
G37*
G36*
X95166630Y-154202299D02*
X95326855Y-154250903D01*
X95474520Y-154329831D01*
X95603949Y-154436051D01*
X95710169Y-154565480D01*
X95789097Y-154713145D01*
X95837701Y-154873370D01*
X95854112Y-155040000D01*
X95837701Y-155206630D01*
X95789097Y-155366855D01*
X95710169Y-155514520D01*
X95603949Y-155643949D01*
X95474520Y-155750169D01*
X95326855Y-155829097D01*
X95166630Y-155877701D01*
X95041752Y-155890000D01*
X94958248Y-155890000D01*
X94833370Y-155877701D01*
X94673145Y-155829097D01*
X94525480Y-155750169D01*
X94396051Y-155643949D01*
X94289831Y-155514520D01*
X94210903Y-155366855D01*
X94162299Y-155206630D01*
X94145888Y-155040000D01*
X94162299Y-154873370D01*
X94210903Y-154713145D01*
X94289831Y-154565480D01*
X94396051Y-154436051D01*
X94525480Y-154329831D01*
X94673145Y-154250903D01*
X94833370Y-154202299D01*
X94958248Y-154190000D01*
X95041752Y-154190000D01*
X95166630Y-154202299D01*
X95166630Y-154202299D01*
G37*
G36*
X77617649Y-151907717D02*
X77656827Y-151911576D01*
X77732227Y-151934448D01*
X77807629Y-151957321D01*
X77946608Y-152031608D01*
X78068422Y-152131578D01*
X78168392Y-152253392D01*
X78242679Y-152392371D01*
X78288424Y-152543174D01*
X78303870Y-152700000D01*
X78288424Y-152856826D01*
X78242679Y-153007629D01*
X78168392Y-153146608D01*
X78068422Y-153268422D01*
X77946608Y-153368392D01*
X77807629Y-153442679D01*
X77732228Y-153465551D01*
X77656827Y-153488424D01*
X77617649Y-153492283D01*
X77539295Y-153500000D01*
X77460705Y-153500000D01*
X77382351Y-153492283D01*
X77343173Y-153488424D01*
X77267772Y-153465551D01*
X77192371Y-153442679D01*
X77053392Y-153368392D01*
X76931578Y-153268422D01*
X76831608Y-153146608D01*
X76757321Y-153007629D01*
X76711576Y-152856826D01*
X76696130Y-152700000D01*
X76711576Y-152543174D01*
X76757321Y-152392371D01*
X76831608Y-152253392D01*
X76931578Y-152131578D01*
X77053392Y-152031608D01*
X77192371Y-151957321D01*
X77267772Y-151934449D01*
X77343173Y-151911576D01*
X77382351Y-151907717D01*
X77460705Y-151900000D01*
X77539295Y-151900000D01*
X77617649Y-151907717D01*
X77617649Y-151907717D01*
G37*
G36*
X95850000Y-153350000D02*
X94150000Y-153350000D01*
X94150000Y-151650000D01*
X95850000Y-151650000D01*
X95850000Y-153350000D01*
X95850000Y-153350000D01*
G37*
G36*
X72733352Y-151730743D02*
X72878941Y-151791048D01*
X73009973Y-151878601D01*
X73121399Y-151990027D01*
X73208952Y-152121059D01*
X73269257Y-152266648D01*
X73300000Y-152421205D01*
X73300000Y-152578795D01*
X73269257Y-152733352D01*
X73208952Y-152878941D01*
X73121399Y-153009973D01*
X73009973Y-153121399D01*
X72878941Y-153208952D01*
X72733352Y-153269257D01*
X72578795Y-153300000D01*
X72421205Y-153300000D01*
X72266648Y-153269257D01*
X72121059Y-153208952D01*
X71990027Y-153121399D01*
X71878601Y-153009973D01*
X71791048Y-152878941D01*
X71730743Y-152733352D01*
X71700000Y-152578795D01*
X71700000Y-152421205D01*
X71730743Y-152266648D01*
X71791048Y-152121059D01*
X71878601Y-151990027D01*
X71990027Y-151878601D01*
X72121059Y-151791048D01*
X72266648Y-151730743D01*
X72421205Y-151700000D01*
X72578795Y-151700000D01*
X72733352Y-151730743D01*
X72733352Y-151730743D01*
G37*
G36*
X60646724Y-146513782D02*
X60826269Y-146568247D01*
X60991741Y-146656693D01*
X61136778Y-146775722D01*
X61255807Y-146920759D01*
X61344253Y-147086232D01*
X61398718Y-147265777D01*
X61412500Y-147405712D01*
X61412500Y-147594289D01*
X61398718Y-147734224D01*
X61344253Y-147913769D01*
X61255807Y-148079241D01*
X61136778Y-148224278D01*
X60991741Y-148343307D01*
X60826268Y-148431753D01*
X60646723Y-148486218D01*
X60460000Y-148504608D01*
X60273276Y-148486218D01*
X60093731Y-148431753D01*
X59928259Y-148343307D01*
X59783222Y-148224278D01*
X59664193Y-148079241D01*
X59575747Y-147913768D01*
X59521282Y-147734223D01*
X59507500Y-147594288D01*
X59507500Y-147405711D01*
X59521282Y-147265776D01*
X59575747Y-147086231D01*
X59664193Y-146920759D01*
X59783219Y-146775725D01*
X59783221Y-146775724D01*
X59783222Y-146775722D01*
X59928259Y-146656694D01*
X59928263Y-146656692D01*
X59928264Y-146656691D01*
X60093732Y-146568247D01*
X60273277Y-146513782D01*
X60460000Y-146495392D01*
X60646724Y-146513782D01*
X60646724Y-146513782D01*
G37*
G36*
X58106724Y-146513782D02*
X58286269Y-146568247D01*
X58451741Y-146656693D01*
X58596778Y-146775722D01*
X58715807Y-146920759D01*
X58804253Y-147086232D01*
X58858718Y-147265777D01*
X58872500Y-147405712D01*
X58872500Y-147594289D01*
X58858718Y-147734224D01*
X58804253Y-147913769D01*
X58715807Y-148079241D01*
X58596778Y-148224278D01*
X58451741Y-148343307D01*
X58286268Y-148431753D01*
X58106723Y-148486218D01*
X57920000Y-148504608D01*
X57733276Y-148486218D01*
X57553731Y-148431753D01*
X57388259Y-148343307D01*
X57243222Y-148224278D01*
X57124193Y-148079241D01*
X57035747Y-147913768D01*
X56981282Y-147734223D01*
X56967500Y-147594288D01*
X56967500Y-147405711D01*
X56981282Y-147265776D01*
X57035747Y-147086231D01*
X57124193Y-146920759D01*
X57243219Y-146775725D01*
X57243221Y-146775724D01*
X57243222Y-146775722D01*
X57388259Y-146656694D01*
X57388263Y-146656692D01*
X57388264Y-146656691D01*
X57553732Y-146568247D01*
X57733277Y-146513782D01*
X57920000Y-146495392D01*
X58106724Y-146513782D01*
X58106724Y-146513782D01*
G37*
G36*
X63952500Y-148500000D02*
X62047500Y-148500000D01*
X62047500Y-146500000D01*
X63952500Y-146500000D01*
X63952500Y-148500000D01*
X63952500Y-148500000D01*
G37*
G36*
X102766723Y-141513782D02*
X102946268Y-141568247D01*
X103111741Y-141656693D01*
X103256778Y-141775722D01*
X103375807Y-141920759D01*
X103464253Y-142086231D01*
X103518718Y-142265776D01*
X103532500Y-142405711D01*
X103532500Y-142594288D01*
X103518718Y-142734223D01*
X103464253Y-142913768D01*
X103375807Y-143079241D01*
X103256778Y-143224278D01*
X103111741Y-143343307D01*
X102946269Y-143431753D01*
X102766724Y-143486218D01*
X102580000Y-143504608D01*
X102393277Y-143486218D01*
X102213732Y-143431753D01*
X102048264Y-143343309D01*
X102048263Y-143343308D01*
X102048259Y-143343306D01*
X101903222Y-143224278D01*
X101903221Y-143224276D01*
X101903219Y-143224275D01*
X101784193Y-143079241D01*
X101695747Y-142913769D01*
X101641282Y-142734224D01*
X101627500Y-142594289D01*
X101627500Y-142405712D01*
X101641282Y-142265777D01*
X101695747Y-142086232D01*
X101784193Y-141920759D01*
X101903222Y-141775722D01*
X102048259Y-141656693D01*
X102213731Y-141568247D01*
X102393276Y-141513782D01*
X102580000Y-141495392D01*
X102766723Y-141513782D01*
X102766723Y-141513782D01*
G37*
G36*
X100226723Y-141513782D02*
X100406268Y-141568247D01*
X100571741Y-141656693D01*
X100716778Y-141775722D01*
X100835807Y-141920759D01*
X100924253Y-142086231D01*
X100978718Y-142265776D01*
X100992500Y-142405711D01*
X100992500Y-142594288D01*
X100978718Y-142734223D01*
X100924253Y-142913768D01*
X100835807Y-143079241D01*
X100716778Y-143224278D01*
X100571741Y-143343307D01*
X100406269Y-143431753D01*
X100226724Y-143486218D01*
X100040000Y-143504608D01*
X99853277Y-143486218D01*
X99673732Y-143431753D01*
X99508264Y-143343309D01*
X99508263Y-143343308D01*
X99508259Y-143343306D01*
X99363222Y-143224278D01*
X99363221Y-143224276D01*
X99363219Y-143224275D01*
X99244193Y-143079241D01*
X99155747Y-142913769D01*
X99101282Y-142734224D01*
X99087500Y-142594289D01*
X99087500Y-142405712D01*
X99101282Y-142265777D01*
X99155747Y-142086232D01*
X99244193Y-141920759D01*
X99363222Y-141775722D01*
X99508259Y-141656693D01*
X99673731Y-141568247D01*
X99853276Y-141513782D01*
X100040000Y-141495392D01*
X100226723Y-141513782D01*
X100226723Y-141513782D01*
G37*
G36*
X98452500Y-143500000D02*
X96547500Y-143500000D01*
X96547500Y-141500000D01*
X98452500Y-141500000D01*
X98452500Y-143500000D01*
X98452500Y-143500000D01*
G37*
G36*
X62733352Y-141730743D02*
X62878941Y-141791048D01*
X63009973Y-141878601D01*
X63121399Y-141990027D01*
X63208952Y-142121059D01*
X63269257Y-142266648D01*
X63300000Y-142421205D01*
X63300000Y-142578795D01*
X63269257Y-142733352D01*
X63208952Y-142878941D01*
X63121399Y-143009973D01*
X63009973Y-143121399D01*
X62878941Y-143208952D01*
X62733352Y-143269257D01*
X62578795Y-143300000D01*
X62421205Y-143300000D01*
X62266648Y-143269257D01*
X62121059Y-143208952D01*
X61990027Y-143121399D01*
X61878601Y-143009973D01*
X61791048Y-142878941D01*
X61730743Y-142733352D01*
X61700000Y-142578795D01*
X61700000Y-142421205D01*
X61730743Y-142266648D01*
X61791048Y-142121059D01*
X61878601Y-141990027D01*
X61990027Y-141878601D01*
X62121059Y-141791048D01*
X62266648Y-141730743D01*
X62421205Y-141700000D01*
X62578795Y-141700000D01*
X62733352Y-141730743D01*
X62733352Y-141730743D01*
G37*
G36*
X67733352Y-141730743D02*
X67878941Y-141791048D01*
X68009973Y-141878601D01*
X68121399Y-141990027D01*
X68208952Y-142121059D01*
X68269257Y-142266648D01*
X68300000Y-142421205D01*
X68300000Y-142578795D01*
X68269257Y-142733352D01*
X68208952Y-142878941D01*
X68121399Y-143009973D01*
X68009973Y-143121399D01*
X67878941Y-143208952D01*
X67733352Y-143269257D01*
X67578795Y-143300000D01*
X67421205Y-143300000D01*
X67266648Y-143269257D01*
X67121059Y-143208952D01*
X66990027Y-143121399D01*
X66878601Y-143009973D01*
X66791048Y-142878941D01*
X66730743Y-142733352D01*
X66700000Y-142578795D01*
X66700000Y-142421205D01*
X66730743Y-142266648D01*
X66791048Y-142121059D01*
X66878601Y-141990027D01*
X66990027Y-141878601D01*
X67121059Y-141791048D01*
X67266648Y-141730743D01*
X67421205Y-141700000D01*
X67578795Y-141700000D01*
X67733352Y-141730743D01*
X67733352Y-141730743D01*
G37*
G36*
X60233352Y-141730743D02*
X60378941Y-141791048D01*
X60509973Y-141878601D01*
X60621399Y-141990027D01*
X60708952Y-142121059D01*
X60769257Y-142266648D01*
X60800000Y-142421205D01*
X60800000Y-142578795D01*
X60769257Y-142733352D01*
X60708952Y-142878941D01*
X60621399Y-143009973D01*
X60509973Y-143121399D01*
X60378941Y-143208952D01*
X60233352Y-143269257D01*
X60078795Y-143300000D01*
X59921205Y-143300000D01*
X59766648Y-143269257D01*
X59621059Y-143208952D01*
X59490027Y-143121399D01*
X59378601Y-143009973D01*
X59291048Y-142878941D01*
X59230743Y-142733352D01*
X59200000Y-142578795D01*
X59200000Y-142421205D01*
X59230743Y-142266648D01*
X59291048Y-142121059D01*
X59378601Y-141990027D01*
X59490027Y-141878601D01*
X59621059Y-141791048D01*
X59766648Y-141730743D01*
X59921205Y-141700000D01*
X60078795Y-141700000D01*
X60233352Y-141730743D01*
X60233352Y-141730743D01*
G37*
G36*
X55233352Y-141730743D02*
X55378941Y-141791048D01*
X55509973Y-141878601D01*
X55621399Y-141990027D01*
X55708952Y-142121059D01*
X55769257Y-142266648D01*
X55800000Y-142421205D01*
X55800000Y-142578795D01*
X55769257Y-142733352D01*
X55708952Y-142878941D01*
X55621399Y-143009973D01*
X55509973Y-143121399D01*
X55378941Y-143208952D01*
X55233352Y-143269257D01*
X55078795Y-143300000D01*
X54921205Y-143300000D01*
X54766648Y-143269257D01*
X54621059Y-143208952D01*
X54490027Y-143121399D01*
X54378601Y-143009973D01*
X54291048Y-142878941D01*
X54230743Y-142733352D01*
X54200000Y-142578795D01*
X54200000Y-142421205D01*
X54230743Y-142266648D01*
X54291048Y-142121059D01*
X54378601Y-141990027D01*
X54490027Y-141878601D01*
X54621059Y-141791048D01*
X54766648Y-141730743D01*
X54921205Y-141700000D01*
X55078795Y-141700000D01*
X55233352Y-141730743D01*
X55233352Y-141730743D01*
G37*
G36*
X77733352Y-139230743D02*
X77878941Y-139291048D01*
X78009973Y-139378601D01*
X78121399Y-139490027D01*
X78208952Y-139621059D01*
X78269257Y-139766648D01*
X78300000Y-139921205D01*
X78300000Y-140078795D01*
X78269257Y-140233352D01*
X78208952Y-140378941D01*
X78121399Y-140509973D01*
X78009973Y-140621399D01*
X77878941Y-140708952D01*
X77733352Y-140769257D01*
X77578795Y-140800000D01*
X77421205Y-140800000D01*
X77266648Y-140769257D01*
X77121059Y-140708952D01*
X76990027Y-140621399D01*
X76878601Y-140509973D01*
X76791048Y-140378941D01*
X76730743Y-140233352D01*
X76700000Y-140078795D01*
X76700000Y-139921205D01*
X76730743Y-139766648D01*
X76791048Y-139621059D01*
X76878601Y-139490027D01*
X76990027Y-139378601D01*
X77121059Y-139291048D01*
X77266648Y-139230743D01*
X77421205Y-139200000D01*
X77578795Y-139200000D01*
X77733352Y-139230743D01*
X77733352Y-139230743D01*
G37*
G36*
X72617649Y-139007717D02*
X72656827Y-139011576D01*
X72732227Y-139034448D01*
X72807629Y-139057321D01*
X72946608Y-139131608D01*
X73068422Y-139231578D01*
X73168392Y-139353392D01*
X73242679Y-139492371D01*
X73288424Y-139643174D01*
X73303870Y-139800000D01*
X73288424Y-139956826D01*
X73242679Y-140107629D01*
X73168392Y-140246608D01*
X73068422Y-140368422D01*
X72946608Y-140468392D01*
X72807629Y-140542679D01*
X72732228Y-140565551D01*
X72656827Y-140588424D01*
X72617649Y-140592283D01*
X72539295Y-140600000D01*
X72460705Y-140600000D01*
X72382351Y-140592283D01*
X72343173Y-140588424D01*
X72267772Y-140565551D01*
X72192371Y-140542679D01*
X72053392Y-140468392D01*
X71931578Y-140368422D01*
X71831608Y-140246608D01*
X71757321Y-140107629D01*
X71711576Y-139956826D01*
X71696130Y-139800000D01*
X71711576Y-139643174D01*
X71757321Y-139492371D01*
X71831608Y-139353392D01*
X71931578Y-139231578D01*
X72053392Y-139131608D01*
X72192371Y-139057321D01*
X72267773Y-139034448D01*
X72343173Y-139011576D01*
X72382351Y-139007717D01*
X72460705Y-139000000D01*
X72539295Y-139000000D01*
X72617649Y-139007717D01*
X72617649Y-139007717D01*
G37*
G36*
X60800000Y-138800000D02*
X59200000Y-138800000D01*
X59200000Y-137200000D01*
X60800000Y-137200000D01*
X60800000Y-138800000D01*
X60800000Y-138800000D01*
G37*
G36*
X68300000Y-138300000D02*
X66700000Y-138300000D01*
X66700000Y-136700000D01*
X68300000Y-136700000D01*
X68300000Y-138300000D01*
X68300000Y-138300000D01*
G37*
G36*
X85098015Y-137047234D02*
X85192268Y-137075825D01*
X85238697Y-137100643D01*
X85279129Y-137122254D01*
X85279131Y-137122255D01*
X85279130Y-137122255D01*
X85355264Y-137184736D01*
X85417745Y-137260870D01*
X85464175Y-137347732D01*
X85492766Y-137441985D01*
X85502419Y-137540000D01*
X85492766Y-137638015D01*
X85464175Y-137732268D01*
X85439357Y-137778697D01*
X85417746Y-137819129D01*
X85355264Y-137895264D01*
X85279129Y-137957746D01*
X85238697Y-137979357D01*
X85192268Y-138004175D01*
X85098015Y-138032766D01*
X85024564Y-138040000D01*
X84975436Y-138040000D01*
X84901985Y-138032766D01*
X84807732Y-138004175D01*
X84761303Y-137979357D01*
X84720871Y-137957746D01*
X84644736Y-137895264D01*
X84582254Y-137819129D01*
X84560643Y-137778697D01*
X84535825Y-137732268D01*
X84507234Y-137638015D01*
X84497581Y-137540000D01*
X84507234Y-137441985D01*
X84535825Y-137347732D01*
X84582255Y-137260870D01*
X84644736Y-137184736D01*
X84720870Y-137122255D01*
X84720869Y-137122255D01*
X84720871Y-137122254D01*
X84761303Y-137100643D01*
X84807732Y-137075825D01*
X84901985Y-137047234D01*
X84975436Y-137040000D01*
X85024564Y-137040000D01*
X85098015Y-137047234D01*
X85098015Y-137047234D01*
G37*
G36*
X85098015Y-135777234D02*
X85192268Y-135805825D01*
X85238697Y-135830643D01*
X85279129Y-135852254D01*
X85355264Y-135914736D01*
X85417746Y-135990871D01*
X85427956Y-136009973D01*
X85464175Y-136077732D01*
X85492766Y-136171985D01*
X85502419Y-136270000D01*
X85492766Y-136368015D01*
X85464175Y-136462268D01*
X85439357Y-136508697D01*
X85417746Y-136549129D01*
X85355264Y-136625264D01*
X85279129Y-136687746D01*
X85238697Y-136709357D01*
X85192268Y-136734175D01*
X85098015Y-136762766D01*
X85024564Y-136770000D01*
X84975436Y-136770000D01*
X84901985Y-136762766D01*
X84807732Y-136734175D01*
X84761303Y-136709357D01*
X84720871Y-136687746D01*
X84644736Y-136625264D01*
X84582254Y-136549129D01*
X84560643Y-136508697D01*
X84535825Y-136462268D01*
X84507234Y-136368015D01*
X84497581Y-136270000D01*
X84507234Y-136171985D01*
X84535825Y-136077732D01*
X84572044Y-136009973D01*
X84582254Y-135990871D01*
X84644736Y-135914736D01*
X84720871Y-135852254D01*
X84761303Y-135830643D01*
X84807732Y-135805825D01*
X84901985Y-135777234D01*
X84975436Y-135770000D01*
X85024564Y-135770000D01*
X85098015Y-135777234D01*
X85098015Y-135777234D01*
G37*
G36*
X60233352Y-134730743D02*
X60378941Y-134791048D01*
X60509973Y-134878601D01*
X60621399Y-134990027D01*
X60708952Y-135121059D01*
X60769257Y-135266648D01*
X60800000Y-135421205D01*
X60800000Y-135578795D01*
X60769257Y-135733352D01*
X60708952Y-135878941D01*
X60621399Y-136009973D01*
X60509973Y-136121399D01*
X60378941Y-136208952D01*
X60233352Y-136269257D01*
X60078795Y-136300000D01*
X59921205Y-136300000D01*
X59766648Y-136269257D01*
X59621059Y-136208952D01*
X59490027Y-136121399D01*
X59378601Y-136009973D01*
X59291048Y-135878941D01*
X59230743Y-135733352D01*
X59200000Y-135578795D01*
X59200000Y-135421205D01*
X59230743Y-135266648D01*
X59291048Y-135121059D01*
X59378601Y-134990027D01*
X59490027Y-134878601D01*
X59621059Y-134791048D01*
X59766648Y-134730743D01*
X59921205Y-134700000D01*
X60078795Y-134700000D01*
X60233352Y-134730743D01*
X60233352Y-134730743D01*
G37*
G36*
X85500000Y-135500000D02*
X84500000Y-135500000D01*
X84500000Y-134500000D01*
X85500000Y-134500000D01*
X85500000Y-135500000D01*
X85500000Y-135500000D01*
G37*
G36*
X67733352Y-131730743D02*
X67878941Y-131791048D01*
X68009973Y-131878601D01*
X68121399Y-131990027D01*
X68208952Y-132121059D01*
X68269257Y-132266648D01*
X68300000Y-132421205D01*
X68300000Y-132578795D01*
X68269257Y-132733352D01*
X68208952Y-132878941D01*
X68121399Y-133009973D01*
X68009973Y-133121399D01*
X67878941Y-133208952D01*
X67733352Y-133269257D01*
X67578795Y-133300000D01*
X67421205Y-133300000D01*
X67266648Y-133269257D01*
X67121059Y-133208952D01*
X66990027Y-133121399D01*
X66878601Y-133009973D01*
X66791048Y-132878941D01*
X66730743Y-132733352D01*
X66700000Y-132578795D01*
X66700000Y-132421205D01*
X66730743Y-132266648D01*
X66791048Y-132121059D01*
X66878601Y-131990027D01*
X66990027Y-131878601D01*
X67121059Y-131791048D01*
X67266648Y-131730743D01*
X67421205Y-131700000D01*
X67578795Y-131700000D01*
X67733352Y-131730743D01*
X67733352Y-131730743D01*
G37*
M02*
