G04 #@! TF.GenerationSoftware,KiCad,Pcbnew,(5.0.2-5)-5*
G04 #@! TF.CreationDate,2019-02-27T22:15:12+01:00*
G04 #@! TF.ProjectId,IkeaTradfriLEDdriver,496b6561-5472-4616-9466-72694c454464,rev?*
G04 #@! TF.SameCoordinates,Original*
G04 #@! TF.FileFunction,Soldermask,Bot*
G04 #@! TF.FilePolarity,Negative*
%FSLAX46Y46*%
G04 Gerber Fmt 4.6, Leading zero omitted, Abs format (unit mm)*
G04 Created by KiCad (PCBNEW (5.0.2-5)-5) date 2019 February 27, Wednesday 22:15:12*
%MOMM*%
%LPD*%
G01*
G04 APERTURE LIST*
%ADD10C,0.100000*%
G04 APERTURE END LIST*
D10*
G36*
X127313352Y-103925743D02*
X127458941Y-103986048D01*
X127589973Y-104073601D01*
X127701399Y-104185027D01*
X127788952Y-104316059D01*
X127849257Y-104461648D01*
X127880000Y-104616205D01*
X127880000Y-104773795D01*
X127849257Y-104928352D01*
X127788952Y-105073941D01*
X127701399Y-105204973D01*
X127589973Y-105316399D01*
X127458941Y-105403952D01*
X127313352Y-105464257D01*
X127158795Y-105495000D01*
X127001205Y-105495000D01*
X126846648Y-105464257D01*
X126701059Y-105403952D01*
X126570027Y-105316399D01*
X126458601Y-105204973D01*
X126371048Y-105073941D01*
X126310743Y-104928352D01*
X126280000Y-104773795D01*
X126280000Y-104616205D01*
X126310743Y-104461648D01*
X126371048Y-104316059D01*
X126458601Y-104185027D01*
X126570027Y-104073601D01*
X126701059Y-103986048D01*
X126846648Y-103925743D01*
X127001205Y-103895000D01*
X127158795Y-103895000D01*
X127313352Y-103925743D01*
X127313352Y-103925743D01*
G37*
G36*
X150593015Y-103647234D02*
X150687268Y-103675825D01*
X150733697Y-103700643D01*
X150774129Y-103722254D01*
X150774131Y-103722255D01*
X150774130Y-103722255D01*
X150850264Y-103784736D01*
X150912745Y-103860870D01*
X150959175Y-103947732D01*
X150987766Y-104041985D01*
X150997419Y-104140000D01*
X150987766Y-104238015D01*
X150959175Y-104332268D01*
X150934357Y-104378697D01*
X150912746Y-104419129D01*
X150850264Y-104495264D01*
X150774129Y-104557746D01*
X150733697Y-104579357D01*
X150687268Y-104604175D01*
X150593015Y-104632766D01*
X150519564Y-104640000D01*
X150470436Y-104640000D01*
X150396985Y-104632766D01*
X150302732Y-104604175D01*
X150256303Y-104579357D01*
X150215871Y-104557746D01*
X150139736Y-104495264D01*
X150077254Y-104419129D01*
X150055643Y-104378697D01*
X150030825Y-104332268D01*
X150002234Y-104238015D01*
X149992581Y-104140000D01*
X150002234Y-104041985D01*
X150030825Y-103947732D01*
X150077255Y-103860870D01*
X150139736Y-103784736D01*
X150215870Y-103722255D01*
X150215869Y-103722255D01*
X150215871Y-103722254D01*
X150256303Y-103700643D01*
X150302732Y-103675825D01*
X150396985Y-103647234D01*
X150470436Y-103640000D01*
X150519564Y-103640000D01*
X150593015Y-103647234D01*
X150593015Y-103647234D01*
G37*
G36*
X149323015Y-103647234D02*
X149417268Y-103675825D01*
X149463697Y-103700643D01*
X149504129Y-103722254D01*
X149504131Y-103722255D01*
X149504130Y-103722255D01*
X149580264Y-103784736D01*
X149642745Y-103860870D01*
X149689175Y-103947732D01*
X149717766Y-104041985D01*
X149727419Y-104140000D01*
X149717766Y-104238015D01*
X149689175Y-104332268D01*
X149664357Y-104378697D01*
X149642746Y-104419129D01*
X149580264Y-104495264D01*
X149504129Y-104557746D01*
X149463697Y-104579357D01*
X149417268Y-104604175D01*
X149323015Y-104632766D01*
X149249564Y-104640000D01*
X149200436Y-104640000D01*
X149126985Y-104632766D01*
X149032732Y-104604175D01*
X148986303Y-104579357D01*
X148945871Y-104557746D01*
X148869736Y-104495264D01*
X148807254Y-104419129D01*
X148785643Y-104378697D01*
X148760825Y-104332268D01*
X148732234Y-104238015D01*
X148722581Y-104140000D01*
X148732234Y-104041985D01*
X148760825Y-103947732D01*
X148807255Y-103860870D01*
X148869736Y-103784736D01*
X148945870Y-103722255D01*
X148945869Y-103722255D01*
X148945871Y-103722254D01*
X148986303Y-103700643D01*
X149032732Y-103675825D01*
X149126985Y-103647234D01*
X149200436Y-103640000D01*
X149249564Y-103640000D01*
X149323015Y-103647234D01*
X149323015Y-103647234D01*
G37*
G36*
X148455000Y-104640000D02*
X147455000Y-104640000D01*
X147455000Y-103640000D01*
X148455000Y-103640000D01*
X148455000Y-104640000D01*
X148455000Y-104640000D01*
G37*
G36*
X130408352Y-101385743D02*
X130553941Y-101446048D01*
X130684973Y-101533601D01*
X130796399Y-101645027D01*
X130883952Y-101776059D01*
X130944257Y-101921648D01*
X130975000Y-102076205D01*
X130975000Y-102233795D01*
X130944257Y-102388352D01*
X130883952Y-102533941D01*
X130796399Y-102664973D01*
X130684973Y-102776399D01*
X130553941Y-102863952D01*
X130408352Y-102924257D01*
X130253795Y-102955000D01*
X130096205Y-102955000D01*
X129941648Y-102924257D01*
X129796059Y-102863952D01*
X129665027Y-102776399D01*
X129553601Y-102664973D01*
X129466048Y-102533941D01*
X129405743Y-102388352D01*
X129375000Y-102233795D01*
X129375000Y-102076205D01*
X129405743Y-101921648D01*
X129466048Y-101776059D01*
X129553601Y-101645027D01*
X129665027Y-101533601D01*
X129796059Y-101446048D01*
X129941648Y-101385743D01*
X130096205Y-101355000D01*
X130253795Y-101355000D01*
X130408352Y-101385743D01*
X130408352Y-101385743D01*
G37*
G36*
X127313352Y-98925743D02*
X127458941Y-98986048D01*
X127589973Y-99073601D01*
X127701399Y-99185027D01*
X127788952Y-99316059D01*
X127849257Y-99461648D01*
X127880000Y-99616205D01*
X127880000Y-99773795D01*
X127849257Y-99928352D01*
X127788952Y-100073941D01*
X127701399Y-100204973D01*
X127589973Y-100316399D01*
X127458941Y-100403952D01*
X127313352Y-100464257D01*
X127158795Y-100495000D01*
X127001205Y-100495000D01*
X126846648Y-100464257D01*
X126701059Y-100403952D01*
X126570027Y-100316399D01*
X126458601Y-100204973D01*
X126371048Y-100073941D01*
X126310743Y-99928352D01*
X126280000Y-99773795D01*
X126280000Y-99616205D01*
X126310743Y-99461648D01*
X126371048Y-99316059D01*
X126458601Y-99185027D01*
X126570027Y-99073601D01*
X126701059Y-98986048D01*
X126846648Y-98925743D01*
X127001205Y-98895000D01*
X127158795Y-98895000D01*
X127313352Y-98925743D01*
X127313352Y-98925743D01*
G37*
G36*
X124825000Y-100012500D02*
X122825000Y-100012500D01*
X122825000Y-98107500D01*
X124825000Y-98107500D01*
X124825000Y-100012500D01*
X124825000Y-100012500D01*
G37*
G36*
X173521630Y-98222299D02*
X173681855Y-98270903D01*
X173829520Y-98349831D01*
X173958949Y-98456051D01*
X174065169Y-98585480D01*
X174144097Y-98733145D01*
X174192701Y-98893370D01*
X174209112Y-99060000D01*
X174192701Y-99226630D01*
X174144097Y-99386855D01*
X174065169Y-99534520D01*
X173958949Y-99663949D01*
X173829520Y-99770169D01*
X173681855Y-99849097D01*
X173521630Y-99897701D01*
X173396752Y-99910000D01*
X173313248Y-99910000D01*
X173188370Y-99897701D01*
X173028145Y-99849097D01*
X172880480Y-99770169D01*
X172751051Y-99663949D01*
X172644831Y-99534520D01*
X172565903Y-99386855D01*
X172517299Y-99226630D01*
X172500888Y-99060000D01*
X172517299Y-98893370D01*
X172565903Y-98733145D01*
X172644831Y-98585480D01*
X172751051Y-98456051D01*
X172880480Y-98349831D01*
X173028145Y-98270903D01*
X173188370Y-98222299D01*
X173313248Y-98210000D01*
X173396752Y-98210000D01*
X173521630Y-98222299D01*
X173521630Y-98222299D01*
G37*
G36*
X107336665Y-94778440D02*
X107508060Y-94795321D01*
X107727977Y-94862032D01*
X107837937Y-94895388D01*
X107907368Y-94932500D01*
X108141952Y-95057888D01*
X108408424Y-95276576D01*
X108627112Y-95543048D01*
X108647549Y-95581283D01*
X108789612Y-95847063D01*
X108789612Y-95847064D01*
X108889679Y-96176940D01*
X108923467Y-96520000D01*
X108889679Y-96863060D01*
X108871906Y-96921648D01*
X108789612Y-97192937D01*
X108727523Y-97309097D01*
X108627112Y-97496952D01*
X108408424Y-97763424D01*
X108141952Y-97982112D01*
X108000437Y-98057753D01*
X107837937Y-98144612D01*
X107727977Y-98177968D01*
X107508060Y-98244679D01*
X107336665Y-98261560D01*
X107250969Y-98270000D01*
X107079031Y-98270000D01*
X106993335Y-98261560D01*
X106821940Y-98244679D01*
X106602023Y-98177968D01*
X106492063Y-98144612D01*
X106329563Y-98057753D01*
X106188048Y-97982112D01*
X105921576Y-97763424D01*
X105702888Y-97496952D01*
X105602477Y-97309097D01*
X105540388Y-97192937D01*
X105458094Y-96921648D01*
X105440321Y-96863060D01*
X105406533Y-96520000D01*
X105440321Y-96176940D01*
X105540388Y-95847064D01*
X105540388Y-95847063D01*
X105682451Y-95581283D01*
X105702888Y-95543048D01*
X105921576Y-95276576D01*
X106188048Y-95057888D01*
X106422632Y-94932500D01*
X106492063Y-94895388D01*
X106602023Y-94862032D01*
X106821940Y-94795321D01*
X106993335Y-94778440D01*
X107079031Y-94770000D01*
X107250969Y-94770000D01*
X107336665Y-94778440D01*
X107336665Y-94778440D01*
G37*
G36*
X130408352Y-96385743D02*
X130553941Y-96446048D01*
X130684973Y-96533601D01*
X130796399Y-96645027D01*
X130883952Y-96776059D01*
X130944257Y-96921648D01*
X130975000Y-97076205D01*
X130975000Y-97233795D01*
X130944257Y-97388352D01*
X130883952Y-97533941D01*
X130796399Y-97664973D01*
X130684973Y-97776399D01*
X130553941Y-97863952D01*
X130408352Y-97924257D01*
X130253795Y-97955000D01*
X130096205Y-97955000D01*
X129941648Y-97924257D01*
X129796059Y-97863952D01*
X129665027Y-97776399D01*
X129553601Y-97664973D01*
X129466048Y-97533941D01*
X129405743Y-97388352D01*
X129375000Y-97233795D01*
X129375000Y-97076205D01*
X129405743Y-96921648D01*
X129466048Y-96776059D01*
X129553601Y-96645027D01*
X129665027Y-96533601D01*
X129796059Y-96446048D01*
X129941648Y-96385743D01*
X130096205Y-96355000D01*
X130253795Y-96355000D01*
X130408352Y-96385743D01*
X130408352Y-96385743D01*
G37*
G36*
X124059224Y-95581282D02*
X124238769Y-95635747D01*
X124404241Y-95724193D01*
X124549278Y-95843222D01*
X124668307Y-95988259D01*
X124756753Y-96153731D01*
X124811218Y-96333276D01*
X124829608Y-96520000D01*
X124811218Y-96706724D01*
X124756753Y-96886269D01*
X124668307Y-97051741D01*
X124549278Y-97196778D01*
X124404241Y-97315807D01*
X124238769Y-97404253D01*
X124059224Y-97458718D01*
X123919289Y-97472500D01*
X123730711Y-97472500D01*
X123590776Y-97458718D01*
X123411231Y-97404253D01*
X123245759Y-97315807D01*
X123100722Y-97196778D01*
X122981693Y-97051741D01*
X122893247Y-96886269D01*
X122838782Y-96706724D01*
X122820392Y-96520000D01*
X122838782Y-96333276D01*
X122893247Y-96153731D01*
X122981693Y-95988259D01*
X123100722Y-95843222D01*
X123245759Y-95724193D01*
X123411231Y-95635747D01*
X123590776Y-95581282D01*
X123730711Y-95567500D01*
X123919289Y-95567500D01*
X124059224Y-95581282D01*
X124059224Y-95581282D01*
G37*
G36*
X173521630Y-95682299D02*
X173681855Y-95730903D01*
X173829520Y-95809831D01*
X173958949Y-95916051D01*
X174065169Y-96045480D01*
X174144097Y-96193145D01*
X174192701Y-96353370D01*
X174209112Y-96520000D01*
X174192701Y-96686630D01*
X174144097Y-96846855D01*
X174065169Y-96994520D01*
X173958949Y-97123949D01*
X173829520Y-97230169D01*
X173681855Y-97309097D01*
X173521630Y-97357701D01*
X173396752Y-97370000D01*
X173313248Y-97370000D01*
X173188370Y-97357701D01*
X173028145Y-97309097D01*
X172880480Y-97230169D01*
X172751051Y-97123949D01*
X172644831Y-96994520D01*
X172565903Y-96846855D01*
X172517299Y-96686630D01*
X172500888Y-96520000D01*
X172517299Y-96353370D01*
X172565903Y-96193145D01*
X172644831Y-96045480D01*
X172751051Y-95916051D01*
X172880480Y-95809831D01*
X173028145Y-95730903D01*
X173188370Y-95682299D01*
X173313248Y-95670000D01*
X173396752Y-95670000D01*
X173521630Y-95682299D01*
X173521630Y-95682299D01*
G37*
G36*
X124059224Y-93041282D02*
X124238769Y-93095747D01*
X124404241Y-93184193D01*
X124549278Y-93303222D01*
X124668307Y-93448259D01*
X124756753Y-93613731D01*
X124811218Y-93793276D01*
X124829608Y-93980000D01*
X124811218Y-94166724D01*
X124756753Y-94346269D01*
X124668307Y-94511741D01*
X124549278Y-94656778D01*
X124404241Y-94775807D01*
X124238769Y-94864253D01*
X124059224Y-94918718D01*
X123919289Y-94932500D01*
X123730711Y-94932500D01*
X123590776Y-94918718D01*
X123411231Y-94864253D01*
X123245759Y-94775807D01*
X123100722Y-94656778D01*
X122981693Y-94511741D01*
X122893247Y-94346269D01*
X122838782Y-94166724D01*
X122820392Y-93980000D01*
X122838782Y-93793276D01*
X122893247Y-93613731D01*
X122981693Y-93448259D01*
X123100722Y-93303222D01*
X123245759Y-93184193D01*
X123411231Y-93095747D01*
X123590776Y-93041282D01*
X123730711Y-93027500D01*
X123919289Y-93027500D01*
X124059224Y-93041282D01*
X124059224Y-93041282D01*
G37*
G36*
X173521630Y-93142299D02*
X173681855Y-93190903D01*
X173829520Y-93269831D01*
X173958949Y-93376051D01*
X174065169Y-93505480D01*
X174144097Y-93653145D01*
X174192701Y-93813370D01*
X174209112Y-93980000D01*
X174192701Y-94146630D01*
X174144097Y-94306855D01*
X174065169Y-94454520D01*
X173958949Y-94583949D01*
X173829520Y-94690169D01*
X173681855Y-94769097D01*
X173521630Y-94817701D01*
X173396752Y-94830000D01*
X173313248Y-94830000D01*
X173188370Y-94817701D01*
X173028145Y-94769097D01*
X172880480Y-94690169D01*
X172751051Y-94583949D01*
X172644831Y-94454520D01*
X172565903Y-94306855D01*
X172517299Y-94146630D01*
X172500888Y-93980000D01*
X172517299Y-93813370D01*
X172565903Y-93653145D01*
X172644831Y-93505480D01*
X172751051Y-93376051D01*
X172880480Y-93269831D01*
X173028145Y-93190903D01*
X173188370Y-93142299D01*
X173313248Y-93130000D01*
X173396752Y-93130000D01*
X173521630Y-93142299D01*
X173521630Y-93142299D01*
G37*
G36*
X137960000Y-94780000D02*
X136360000Y-94780000D01*
X136360000Y-93180000D01*
X137960000Y-93180000D01*
X137960000Y-94780000D01*
X137960000Y-94780000D01*
G37*
G36*
X174205000Y-92290000D02*
X172505000Y-92290000D01*
X172505000Y-90590000D01*
X174205000Y-90590000D01*
X174205000Y-92290000D01*
X174205000Y-92290000D01*
G37*
G36*
X131003352Y-90670743D02*
X131148941Y-90731048D01*
X131279973Y-90818601D01*
X131391399Y-90930027D01*
X131478952Y-91061059D01*
X131539257Y-91206648D01*
X131570000Y-91361205D01*
X131570000Y-91518795D01*
X131539257Y-91673352D01*
X131478952Y-91818941D01*
X131391399Y-91949973D01*
X131279973Y-92061399D01*
X131148941Y-92148952D01*
X131003352Y-92209257D01*
X130848795Y-92240000D01*
X130691205Y-92240000D01*
X130536648Y-92209257D01*
X130391059Y-92148952D01*
X130260027Y-92061399D01*
X130148601Y-91949973D01*
X130061048Y-91818941D01*
X130000743Y-91673352D01*
X129970000Y-91518795D01*
X129970000Y-91361205D01*
X130000743Y-91206648D01*
X130061048Y-91061059D01*
X130148601Y-90930027D01*
X130260027Y-90818601D01*
X130391059Y-90731048D01*
X130536648Y-90670743D01*
X130691205Y-90640000D01*
X130848795Y-90640000D01*
X131003352Y-90670743D01*
X131003352Y-90670743D01*
G37*
G36*
X129070000Y-92240000D02*
X127470000Y-92240000D01*
X127470000Y-90640000D01*
X129070000Y-90640000D01*
X129070000Y-92240000D01*
X129070000Y-92240000D01*
G37*
G36*
X154633840Y-89624676D02*
X154673589Y-89636734D01*
X154710223Y-89656315D01*
X154742333Y-89682667D01*
X154768685Y-89714777D01*
X154788266Y-89751411D01*
X154800324Y-89791160D01*
X154805000Y-89838640D01*
X154805000Y-90501360D01*
X154800324Y-90548840D01*
X154788266Y-90588589D01*
X154768685Y-90625223D01*
X154742333Y-90657333D01*
X154710223Y-90683685D01*
X154673589Y-90703266D01*
X154633840Y-90715324D01*
X154586360Y-90720000D01*
X153223640Y-90720000D01*
X153176160Y-90715324D01*
X153136411Y-90703266D01*
X153099777Y-90683685D01*
X153067667Y-90657333D01*
X153041315Y-90625223D01*
X153021734Y-90588589D01*
X153009676Y-90548840D01*
X153005000Y-90501360D01*
X153005000Y-89838640D01*
X153009676Y-89791160D01*
X153021734Y-89751411D01*
X153041315Y-89714777D01*
X153067667Y-89682667D01*
X153099777Y-89656315D01*
X153136411Y-89636734D01*
X153176160Y-89624676D01*
X153223640Y-89620000D01*
X154586360Y-89620000D01*
X154633840Y-89624676D01*
X154633840Y-89624676D01*
G37*
G36*
X137393352Y-88210743D02*
X137538941Y-88271048D01*
X137669973Y-88358601D01*
X137781399Y-88470027D01*
X137868952Y-88601059D01*
X137929257Y-88746648D01*
X137960000Y-88901205D01*
X137960000Y-89058795D01*
X137929257Y-89213352D01*
X137868952Y-89358941D01*
X137781399Y-89489973D01*
X137669973Y-89601399D01*
X137538941Y-89688952D01*
X137393352Y-89749257D01*
X137238795Y-89780000D01*
X137081205Y-89780000D01*
X136926648Y-89749257D01*
X136781059Y-89688952D01*
X136650027Y-89601399D01*
X136538601Y-89489973D01*
X136451048Y-89358941D01*
X136390743Y-89213352D01*
X136360000Y-89058795D01*
X136360000Y-88901205D01*
X136390743Y-88746648D01*
X136451048Y-88601059D01*
X136538601Y-88470027D01*
X136650027Y-88358601D01*
X136781059Y-88271048D01*
X136926648Y-88210743D01*
X137081205Y-88180000D01*
X137238795Y-88180000D01*
X137393352Y-88210743D01*
X137393352Y-88210743D01*
G37*
G36*
X167142224Y-88210128D02*
X167274175Y-88250155D01*
X167395781Y-88315155D01*
X167502370Y-88402630D01*
X167589845Y-88509219D01*
X167654845Y-88630825D01*
X167694872Y-88762776D01*
X167708387Y-88900000D01*
X167694872Y-89037224D01*
X167654845Y-89169175D01*
X167589845Y-89290781D01*
X167502370Y-89397370D01*
X167395781Y-89484845D01*
X167274175Y-89549845D01*
X167142224Y-89589872D01*
X167039390Y-89600000D01*
X166970610Y-89600000D01*
X166867776Y-89589872D01*
X166735825Y-89549845D01*
X166614219Y-89484845D01*
X166507630Y-89397370D01*
X166420155Y-89290781D01*
X166355155Y-89169175D01*
X166315128Y-89037224D01*
X166301613Y-88900000D01*
X166315128Y-88762776D01*
X166355155Y-88630825D01*
X166420155Y-88509219D01*
X166507630Y-88402630D01*
X166614219Y-88315155D01*
X166735825Y-88250155D01*
X166867776Y-88210128D01*
X166970610Y-88200000D01*
X167039390Y-88200000D01*
X167142224Y-88210128D01*
X167142224Y-88210128D01*
G37*
G36*
X159589183Y-88226900D02*
X159695766Y-88271049D01*
X159716574Y-88279668D01*
X159769685Y-88315155D01*
X159831225Y-88356275D01*
X159928725Y-88453775D01*
X160005332Y-88568426D01*
X160058100Y-88695817D01*
X160085000Y-88831055D01*
X160085000Y-88968945D01*
X160058100Y-89104183D01*
X160012880Y-89213351D01*
X160005332Y-89231574D01*
X159928726Y-89346224D01*
X159831224Y-89443726D01*
X159762014Y-89489970D01*
X159716574Y-89520332D01*
X159589183Y-89573100D01*
X159453945Y-89600000D01*
X159316055Y-89600000D01*
X159180817Y-89573100D01*
X159053426Y-89520332D01*
X159007986Y-89489970D01*
X158938776Y-89443726D01*
X158841274Y-89346224D01*
X158764668Y-89231574D01*
X158757120Y-89213351D01*
X158711900Y-89104183D01*
X158685000Y-88968945D01*
X158685000Y-88831055D01*
X158711900Y-88695817D01*
X158764668Y-88568426D01*
X158841275Y-88453775D01*
X158938775Y-88356275D01*
X159000316Y-88315155D01*
X159053426Y-88279668D01*
X159074234Y-88271049D01*
X159180817Y-88226900D01*
X159316055Y-88200000D01*
X159453945Y-88200000D01*
X159589183Y-88226900D01*
X159589183Y-88226900D01*
G37*
G36*
X156703840Y-88354676D02*
X156743589Y-88366734D01*
X156780223Y-88386315D01*
X156812333Y-88412667D01*
X156838685Y-88444777D01*
X156858266Y-88481411D01*
X156870324Y-88521160D01*
X156875000Y-88568640D01*
X156875000Y-89231360D01*
X156870324Y-89278840D01*
X156858266Y-89318589D01*
X156838685Y-89355223D01*
X156812333Y-89387333D01*
X156780223Y-89413685D01*
X156743589Y-89433266D01*
X156703840Y-89445324D01*
X156656360Y-89450000D01*
X155293640Y-89450000D01*
X155246160Y-89445324D01*
X155206411Y-89433266D01*
X155169777Y-89413685D01*
X155137667Y-89387333D01*
X155111315Y-89355223D01*
X155091734Y-89318589D01*
X155079676Y-89278840D01*
X155075000Y-89231360D01*
X155075000Y-88568640D01*
X155079676Y-88521160D01*
X155091734Y-88481411D01*
X155111315Y-88444777D01*
X155137667Y-88412667D01*
X155169777Y-88386315D01*
X155206411Y-88366734D01*
X155246160Y-88354676D01*
X155293640Y-88350000D01*
X156656360Y-88350000D01*
X156703840Y-88354676D01*
X156703840Y-88354676D01*
G37*
G36*
X154805000Y-88180000D02*
X153005000Y-88180000D01*
X153005000Y-87080000D01*
X154805000Y-87080000D01*
X154805000Y-88180000D01*
X154805000Y-88180000D01*
G37*
G36*
X109153225Y-80749049D02*
X109314223Y-80781074D01*
X109436503Y-80831724D01*
X109769193Y-80969528D01*
X110178660Y-81243126D01*
X110526874Y-81591340D01*
X110800472Y-82000807D01*
X110988926Y-82455778D01*
X111085000Y-82938770D01*
X111085000Y-83431230D01*
X111039572Y-83659608D01*
X110988926Y-83914223D01*
X110976165Y-83945030D01*
X110800472Y-84369193D01*
X110526874Y-84778660D01*
X110178660Y-85126874D01*
X109769193Y-85400472D01*
X109502677Y-85510866D01*
X109314223Y-85588926D01*
X109153225Y-85620951D01*
X108831230Y-85685000D01*
X108338770Y-85685000D01*
X108016775Y-85620951D01*
X107855777Y-85588926D01*
X107667323Y-85510866D01*
X107400807Y-85400472D01*
X106991340Y-85126874D01*
X106643126Y-84778660D01*
X106369528Y-84369193D01*
X106193835Y-83945030D01*
X106181074Y-83914223D01*
X106130428Y-83659608D01*
X106085000Y-83431230D01*
X106085000Y-82938770D01*
X106181074Y-82455778D01*
X106369528Y-82000807D01*
X106643126Y-81591340D01*
X106991340Y-81243126D01*
X107400807Y-80969528D01*
X107733497Y-80831724D01*
X107855777Y-80781074D01*
X108016775Y-80749049D01*
X108338770Y-80685000D01*
X108831230Y-80685000D01*
X109153225Y-80749049D01*
X109153225Y-80749049D01*
G37*
G36*
X124090000Y-85355000D02*
X122290000Y-85355000D01*
X122290000Y-83555000D01*
X124090000Y-83555000D01*
X124090000Y-85355000D01*
X124090000Y-85355000D01*
G37*
G36*
X144262649Y-83662717D02*
X144301827Y-83666576D01*
X144365012Y-83685743D01*
X144452629Y-83712321D01*
X144591608Y-83786608D01*
X144713422Y-83886578D01*
X144813392Y-84008392D01*
X144887679Y-84147371D01*
X144933424Y-84298174D01*
X144948870Y-84455000D01*
X144933424Y-84611826D01*
X144887679Y-84762629D01*
X144813392Y-84901608D01*
X144713422Y-85023422D01*
X144591608Y-85123392D01*
X144452629Y-85197679D01*
X144377228Y-85220551D01*
X144301827Y-85243424D01*
X144262649Y-85247283D01*
X144184295Y-85255000D01*
X144105705Y-85255000D01*
X144027351Y-85247283D01*
X143988173Y-85243424D01*
X143912772Y-85220551D01*
X143837371Y-85197679D01*
X143698392Y-85123392D01*
X143576578Y-85023422D01*
X143476608Y-84901608D01*
X143402321Y-84762629D01*
X143356576Y-84611826D01*
X143341130Y-84455000D01*
X143356576Y-84298174D01*
X143402321Y-84147371D01*
X143476608Y-84008392D01*
X143576578Y-83886578D01*
X143698392Y-83786608D01*
X143837371Y-83712321D01*
X143924988Y-83685743D01*
X143988173Y-83666576D01*
X144027351Y-83662717D01*
X144105705Y-83655000D01*
X144184295Y-83655000D01*
X144262649Y-83662717D01*
X144262649Y-83662717D01*
G37*
G36*
X131678352Y-83685743D02*
X131823941Y-83746048D01*
X131954973Y-83833601D01*
X132066399Y-83945027D01*
X132153952Y-84076059D01*
X132214257Y-84221648D01*
X132245000Y-84376205D01*
X132245000Y-84533795D01*
X132214257Y-84688352D01*
X132153952Y-84833941D01*
X132066399Y-84964973D01*
X131954973Y-85076399D01*
X131823941Y-85163952D01*
X131678352Y-85224257D01*
X131523795Y-85255000D01*
X131366205Y-85255000D01*
X131211648Y-85224257D01*
X131066059Y-85163952D01*
X130935027Y-85076399D01*
X130823601Y-84964973D01*
X130736048Y-84833941D01*
X130675743Y-84688352D01*
X130645000Y-84533795D01*
X130645000Y-84376205D01*
X130675743Y-84221648D01*
X130736048Y-84076059D01*
X130823601Y-83945027D01*
X130935027Y-83833601D01*
X131066059Y-83746048D01*
X131211648Y-83685743D01*
X131366205Y-83655000D01*
X131523795Y-83655000D01*
X131678352Y-83685743D01*
X131678352Y-83685743D01*
G37*
G36*
X128387649Y-83662717D02*
X128426827Y-83666576D01*
X128490012Y-83685743D01*
X128577629Y-83712321D01*
X128716608Y-83786608D01*
X128838422Y-83886578D01*
X128938392Y-84008392D01*
X129012679Y-84147371D01*
X129058424Y-84298174D01*
X129073870Y-84455000D01*
X129058424Y-84611826D01*
X129012679Y-84762629D01*
X128938392Y-84901608D01*
X128838422Y-85023422D01*
X128716608Y-85123392D01*
X128577629Y-85197679D01*
X128502228Y-85220551D01*
X128426827Y-85243424D01*
X128387649Y-85247283D01*
X128309295Y-85255000D01*
X128230705Y-85255000D01*
X128152351Y-85247283D01*
X128113173Y-85243424D01*
X128037772Y-85220551D01*
X127962371Y-85197679D01*
X127823392Y-85123392D01*
X127701578Y-85023422D01*
X127601608Y-84901608D01*
X127527321Y-84762629D01*
X127481576Y-84611826D01*
X127466130Y-84455000D01*
X127481576Y-84298174D01*
X127527321Y-84147371D01*
X127601608Y-84008392D01*
X127701578Y-83886578D01*
X127823392Y-83786608D01*
X127962371Y-83712321D01*
X128049988Y-83685743D01*
X128113173Y-83666576D01*
X128152351Y-83662717D01*
X128230705Y-83655000D01*
X128309295Y-83655000D01*
X128387649Y-83662717D01*
X128387649Y-83662717D01*
G37*
G36*
X148453649Y-83535717D02*
X148492827Y-83539576D01*
X148543673Y-83555000D01*
X148643629Y-83585321D01*
X148782608Y-83659608D01*
X148904422Y-83759578D01*
X149004392Y-83881392D01*
X149078679Y-84020371D01*
X149124424Y-84171174D01*
X149139870Y-84328000D01*
X149124424Y-84484826D01*
X149078679Y-84635629D01*
X149004392Y-84774608D01*
X148904422Y-84896422D01*
X148782608Y-84996392D01*
X148643629Y-85070679D01*
X148568228Y-85093551D01*
X148492827Y-85116424D01*
X148453649Y-85120283D01*
X148375295Y-85128000D01*
X148296705Y-85128000D01*
X148218351Y-85120283D01*
X148179173Y-85116424D01*
X148103772Y-85093551D01*
X148028371Y-85070679D01*
X147889392Y-84996392D01*
X147767578Y-84896422D01*
X147667608Y-84774608D01*
X147593321Y-84635629D01*
X147547576Y-84484826D01*
X147532130Y-84328000D01*
X147547576Y-84171174D01*
X147593321Y-84020371D01*
X147667608Y-83881392D01*
X147767578Y-83759578D01*
X147889392Y-83659608D01*
X148028371Y-83585321D01*
X148128327Y-83555000D01*
X148179173Y-83539576D01*
X148218351Y-83535717D01*
X148296705Y-83528000D01*
X148375295Y-83528000D01*
X148453649Y-83535717D01*
X148453649Y-83535717D01*
G37*
G36*
X153904224Y-79706282D02*
X154083769Y-79760747D01*
X154249241Y-79849193D01*
X154394278Y-79968222D01*
X154513307Y-80113259D01*
X154601753Y-80278731D01*
X154656218Y-80458276D01*
X154674608Y-80645000D01*
X154656218Y-80831724D01*
X154601753Y-81011269D01*
X154513307Y-81176741D01*
X154394278Y-81321778D01*
X154249241Y-81440807D01*
X154083769Y-81529253D01*
X153904224Y-81583718D01*
X153764289Y-81597500D01*
X153575711Y-81597500D01*
X153435776Y-81583718D01*
X153256231Y-81529253D01*
X153090759Y-81440807D01*
X152945722Y-81321778D01*
X152826693Y-81176741D01*
X152738247Y-81011269D01*
X152683782Y-80831724D01*
X152665392Y-80645000D01*
X152683782Y-80458276D01*
X152738247Y-80278731D01*
X152826693Y-80113259D01*
X152945722Y-79968222D01*
X153090759Y-79849193D01*
X153256231Y-79760747D01*
X153435776Y-79706282D01*
X153575711Y-79692500D01*
X153764289Y-79692500D01*
X153904224Y-79706282D01*
X153904224Y-79706282D01*
G37*
G36*
X141888827Y-78567576D02*
X141964227Y-78590448D01*
X142039629Y-78613321D01*
X142178608Y-78687608D01*
X142300422Y-78787578D01*
X142400392Y-78909392D01*
X142474679Y-79048371D01*
X142520424Y-79199174D01*
X142532000Y-79316705D01*
X142532000Y-80195295D01*
X142520424Y-80312826D01*
X142474679Y-80463629D01*
X142400392Y-80602608D01*
X142300425Y-80724419D01*
X142300423Y-80724420D01*
X142300422Y-80724422D01*
X142300418Y-80724425D01*
X142178604Y-80824394D01*
X142039628Y-80898679D01*
X141964226Y-80921552D01*
X141888826Y-80944424D01*
X141732000Y-80959870D01*
X141575173Y-80944424D01*
X141499773Y-80921552D01*
X141424371Y-80898679D01*
X141285392Y-80824392D01*
X141163581Y-80724425D01*
X141163580Y-80724423D01*
X141163578Y-80724422D01*
X141063607Y-80602605D01*
X140989322Y-80463629D01*
X140989321Y-80463628D01*
X140966449Y-80388227D01*
X140943576Y-80312826D01*
X140932000Y-80195292D01*
X140932000Y-79316707D01*
X140943577Y-79199173D01*
X140979135Y-79081953D01*
X140989322Y-79048371D01*
X141063609Y-78909392D01*
X141163579Y-78787578D01*
X141285393Y-78687608D01*
X141424372Y-78613321D01*
X141499773Y-78590449D01*
X141575174Y-78567576D01*
X141732000Y-78552130D01*
X141888827Y-78567576D01*
X141888827Y-78567576D01*
G37*
G36*
X139348827Y-78567576D02*
X139424227Y-78590448D01*
X139499629Y-78613321D01*
X139638608Y-78687608D01*
X139760422Y-78787578D01*
X139860392Y-78909392D01*
X139934679Y-79048371D01*
X139980424Y-79199174D01*
X139992000Y-79316705D01*
X139992000Y-80195295D01*
X139980424Y-80312826D01*
X139934679Y-80463629D01*
X139860392Y-80602608D01*
X139760425Y-80724419D01*
X139760423Y-80724420D01*
X139760422Y-80724422D01*
X139760418Y-80724425D01*
X139638604Y-80824394D01*
X139499628Y-80898679D01*
X139424226Y-80921552D01*
X139348826Y-80944424D01*
X139192000Y-80959870D01*
X139035173Y-80944424D01*
X138959773Y-80921552D01*
X138884371Y-80898679D01*
X138745392Y-80824392D01*
X138623581Y-80724425D01*
X138623580Y-80724423D01*
X138623578Y-80724422D01*
X138523607Y-80602605D01*
X138449322Y-80463629D01*
X138449321Y-80463628D01*
X138426449Y-80388227D01*
X138403576Y-80312826D01*
X138392000Y-80195292D01*
X138392000Y-79316707D01*
X138403577Y-79199173D01*
X138439135Y-79081953D01*
X138449322Y-79048371D01*
X138523609Y-78909392D01*
X138623579Y-78787578D01*
X138745393Y-78687608D01*
X138884372Y-78613321D01*
X138959773Y-78590449D01*
X139035174Y-78567576D01*
X139192000Y-78552130D01*
X139348827Y-78567576D01*
X139348827Y-78567576D01*
G37*
G36*
X136808827Y-78567576D02*
X136884227Y-78590448D01*
X136959629Y-78613321D01*
X137098608Y-78687608D01*
X137220422Y-78787578D01*
X137320392Y-78909392D01*
X137394679Y-79048371D01*
X137440424Y-79199174D01*
X137452000Y-79316705D01*
X137452000Y-80195295D01*
X137440424Y-80312826D01*
X137394679Y-80463629D01*
X137320392Y-80602608D01*
X137220425Y-80724419D01*
X137220423Y-80724420D01*
X137220422Y-80724422D01*
X137220418Y-80724425D01*
X137098604Y-80824394D01*
X136959628Y-80898679D01*
X136884226Y-80921552D01*
X136808826Y-80944424D01*
X136652000Y-80959870D01*
X136495173Y-80944424D01*
X136419773Y-80921552D01*
X136344371Y-80898679D01*
X136205392Y-80824392D01*
X136083581Y-80724425D01*
X136083580Y-80724423D01*
X136083578Y-80724422D01*
X135983607Y-80602605D01*
X135909322Y-80463629D01*
X135909321Y-80463628D01*
X135886449Y-80388227D01*
X135863576Y-80312826D01*
X135852000Y-80195292D01*
X135852000Y-79316707D01*
X135863577Y-79199173D01*
X135899135Y-79081953D01*
X135909322Y-79048371D01*
X135983609Y-78909392D01*
X136083579Y-78787578D01*
X136205393Y-78687608D01*
X136344372Y-78613321D01*
X136419773Y-78590449D01*
X136495174Y-78567576D01*
X136652000Y-78552130D01*
X136808827Y-78567576D01*
X136808827Y-78567576D01*
G37*
G36*
X134268827Y-78567576D02*
X134344227Y-78590448D01*
X134419629Y-78613321D01*
X134558608Y-78687608D01*
X134680422Y-78787578D01*
X134780392Y-78909392D01*
X134854679Y-79048371D01*
X134900424Y-79199174D01*
X134912000Y-79316705D01*
X134912000Y-80195295D01*
X134900424Y-80312826D01*
X134854679Y-80463629D01*
X134780392Y-80602608D01*
X134680425Y-80724419D01*
X134680423Y-80724420D01*
X134680422Y-80724422D01*
X134680418Y-80724425D01*
X134558604Y-80824394D01*
X134419628Y-80898679D01*
X134344226Y-80921552D01*
X134268826Y-80944424D01*
X134112000Y-80959870D01*
X133955173Y-80944424D01*
X133879773Y-80921552D01*
X133804371Y-80898679D01*
X133665392Y-80824392D01*
X133543581Y-80724425D01*
X133543580Y-80724423D01*
X133543578Y-80724422D01*
X133443607Y-80602605D01*
X133369322Y-80463629D01*
X133369321Y-80463628D01*
X133346449Y-80388227D01*
X133323576Y-80312826D01*
X133312000Y-80195292D01*
X133312000Y-79316707D01*
X133323577Y-79199173D01*
X133359135Y-79081953D01*
X133369322Y-79048371D01*
X133443609Y-78909392D01*
X133543579Y-78787578D01*
X133665393Y-78687608D01*
X133804372Y-78613321D01*
X133879773Y-78590449D01*
X133955174Y-78567576D01*
X134112000Y-78552130D01*
X134268827Y-78567576D01*
X134268827Y-78567576D01*
G37*
G36*
X170501665Y-76363440D02*
X170673060Y-76380321D01*
X170890326Y-76446228D01*
X171002937Y-76480388D01*
X171072368Y-76517500D01*
X171306952Y-76642888D01*
X171573424Y-76861576D01*
X171792112Y-77128048D01*
X171812549Y-77166283D01*
X171954612Y-77432063D01*
X171954612Y-77432064D01*
X172054679Y-77761940D01*
X172088467Y-78105000D01*
X172054679Y-78448060D01*
X171997443Y-78636741D01*
X171954612Y-78777937D01*
X171888937Y-78900806D01*
X171792112Y-79081952D01*
X171573424Y-79348424D01*
X171306952Y-79567112D01*
X171165437Y-79642753D01*
X171002937Y-79729612D01*
X170900298Y-79760747D01*
X170673060Y-79829679D01*
X170501665Y-79846560D01*
X170415969Y-79855000D01*
X170244031Y-79855000D01*
X170158335Y-79846560D01*
X169986940Y-79829679D01*
X169759702Y-79760747D01*
X169657063Y-79729612D01*
X169494563Y-79642753D01*
X169353048Y-79567112D01*
X169086576Y-79348424D01*
X168867888Y-79081952D01*
X168771063Y-78900806D01*
X168705388Y-78777937D01*
X168662557Y-78636741D01*
X168605321Y-78448060D01*
X168571533Y-78105000D01*
X168605321Y-77761940D01*
X168705388Y-77432064D01*
X168705388Y-77432063D01*
X168847451Y-77166283D01*
X168867888Y-77128048D01*
X169086576Y-76861576D01*
X169353048Y-76642888D01*
X169587632Y-76517500D01*
X169657063Y-76480388D01*
X169769674Y-76446228D01*
X169986940Y-76380321D01*
X170158335Y-76363440D01*
X170244031Y-76355000D01*
X170415969Y-76355000D01*
X170501665Y-76363440D01*
X170501665Y-76363440D01*
G37*
G36*
X153904224Y-77166282D02*
X154083769Y-77220747D01*
X154249241Y-77309193D01*
X154394278Y-77428222D01*
X154513307Y-77573259D01*
X154601753Y-77738731D01*
X154656218Y-77918276D01*
X154674608Y-78105000D01*
X154656218Y-78291724D01*
X154601753Y-78471269D01*
X154513307Y-78636741D01*
X154394278Y-78781778D01*
X154249241Y-78900807D01*
X154083769Y-78989253D01*
X153904224Y-79043718D01*
X153764289Y-79057500D01*
X153575711Y-79057500D01*
X153435776Y-79043718D01*
X153256231Y-78989253D01*
X153090759Y-78900807D01*
X152945722Y-78781778D01*
X152826693Y-78636741D01*
X152738247Y-78471269D01*
X152683782Y-78291724D01*
X152665392Y-78105000D01*
X152683782Y-77918276D01*
X152738247Y-77738731D01*
X152826693Y-77573259D01*
X152945722Y-77428222D01*
X153090759Y-77309193D01*
X153256231Y-77220747D01*
X153435776Y-77166282D01*
X153575711Y-77152500D01*
X153764289Y-77152500D01*
X153904224Y-77166282D01*
X153904224Y-77166282D01*
G37*
G36*
X109153225Y-73764049D02*
X109314223Y-73796074D01*
X109502677Y-73874134D01*
X109769193Y-73984528D01*
X110178660Y-74258126D01*
X110526874Y-74606340D01*
X110800472Y-75015807D01*
X110988926Y-75470778D01*
X111085000Y-75953770D01*
X111085000Y-76446230D01*
X110988926Y-76929222D01*
X110800472Y-77384193D01*
X110526874Y-77793660D01*
X110178660Y-78141874D01*
X109769193Y-78415472D01*
X109634486Y-78471269D01*
X109314223Y-78603926D01*
X109266991Y-78613321D01*
X108831230Y-78700000D01*
X108338770Y-78700000D01*
X107903009Y-78613321D01*
X107855777Y-78603926D01*
X107535514Y-78471269D01*
X107400807Y-78415472D01*
X106991340Y-78141874D01*
X106643126Y-77793660D01*
X106369528Y-77384193D01*
X106181074Y-76929222D01*
X106085000Y-76446230D01*
X106085000Y-75953770D01*
X106181074Y-75470778D01*
X106369528Y-75015807D01*
X106643126Y-74606340D01*
X106991340Y-74258126D01*
X107400807Y-73984528D01*
X107667323Y-73874134D01*
X107855777Y-73796074D01*
X108016775Y-73764049D01*
X108338770Y-73700000D01*
X108831230Y-73700000D01*
X109153225Y-73764049D01*
X109153225Y-73764049D01*
G37*
G36*
X154670000Y-76517500D02*
X152670000Y-76517500D01*
X152670000Y-74612500D01*
X154670000Y-74612500D01*
X154670000Y-76517500D01*
X154670000Y-76517500D01*
G37*
G36*
X134268827Y-70947576D02*
X134344228Y-70970449D01*
X134419629Y-70993321D01*
X134558608Y-71067608D01*
X134680422Y-71167578D01*
X134780392Y-71289392D01*
X134854679Y-71428371D01*
X134854679Y-71428372D01*
X134900241Y-71578569D01*
X134900424Y-71579174D01*
X134912000Y-71696705D01*
X134912000Y-72575295D01*
X134900424Y-72692826D01*
X134854679Y-72843629D01*
X134780392Y-72982608D01*
X134680425Y-73104419D01*
X134680423Y-73104420D01*
X134680422Y-73104422D01*
X134680418Y-73104425D01*
X134558604Y-73204394D01*
X134419628Y-73278679D01*
X134344227Y-73301551D01*
X134268826Y-73324424D01*
X134112000Y-73339870D01*
X133955173Y-73324424D01*
X133879773Y-73301552D01*
X133804371Y-73278679D01*
X133665392Y-73204392D01*
X133543581Y-73104425D01*
X133543580Y-73104423D01*
X133543578Y-73104422D01*
X133443607Y-72982605D01*
X133369322Y-72843629D01*
X133369321Y-72843628D01*
X133346448Y-72768226D01*
X133323576Y-72692826D01*
X133312000Y-72575292D01*
X133312000Y-71696707D01*
X133323577Y-71579173D01*
X133369322Y-71428372D01*
X133369322Y-71428371D01*
X133443609Y-71289392D01*
X133543579Y-71167578D01*
X133665393Y-71067608D01*
X133804372Y-70993321D01*
X133879773Y-70970449D01*
X133955174Y-70947576D01*
X134112000Y-70932130D01*
X134268827Y-70947576D01*
X134268827Y-70947576D01*
G37*
G36*
X136808827Y-70947576D02*
X136884228Y-70970449D01*
X136959629Y-70993321D01*
X137098608Y-71067608D01*
X137220422Y-71167578D01*
X137320392Y-71289392D01*
X137394679Y-71428371D01*
X137394679Y-71428372D01*
X137440241Y-71578569D01*
X137440424Y-71579174D01*
X137452000Y-71696705D01*
X137452000Y-72575295D01*
X137440424Y-72692826D01*
X137394679Y-72843629D01*
X137320392Y-72982608D01*
X137220425Y-73104419D01*
X137220423Y-73104420D01*
X137220422Y-73104422D01*
X137220418Y-73104425D01*
X137098604Y-73204394D01*
X136959628Y-73278679D01*
X136884227Y-73301551D01*
X136808826Y-73324424D01*
X136652000Y-73339870D01*
X136495173Y-73324424D01*
X136419773Y-73301552D01*
X136344371Y-73278679D01*
X136205392Y-73204392D01*
X136083581Y-73104425D01*
X136083580Y-73104423D01*
X136083578Y-73104422D01*
X135983607Y-72982605D01*
X135909322Y-72843629D01*
X135909321Y-72843628D01*
X135886448Y-72768226D01*
X135863576Y-72692826D01*
X135852000Y-72575292D01*
X135852000Y-71696707D01*
X135863577Y-71579173D01*
X135909322Y-71428372D01*
X135909322Y-71428371D01*
X135983609Y-71289392D01*
X136083579Y-71167578D01*
X136205393Y-71067608D01*
X136344372Y-70993321D01*
X136419773Y-70970449D01*
X136495174Y-70947576D01*
X136652000Y-70932130D01*
X136808827Y-70947576D01*
X136808827Y-70947576D01*
G37*
G36*
X139348827Y-70947576D02*
X139424228Y-70970449D01*
X139499629Y-70993321D01*
X139638608Y-71067608D01*
X139760422Y-71167578D01*
X139860392Y-71289392D01*
X139934679Y-71428371D01*
X139934679Y-71428372D01*
X139980241Y-71578569D01*
X139980424Y-71579174D01*
X139992000Y-71696705D01*
X139992000Y-72575295D01*
X139980424Y-72692826D01*
X139934679Y-72843629D01*
X139860392Y-72982608D01*
X139760425Y-73104419D01*
X139760423Y-73104420D01*
X139760422Y-73104422D01*
X139760418Y-73104425D01*
X139638604Y-73204394D01*
X139499628Y-73278679D01*
X139424227Y-73301551D01*
X139348826Y-73324424D01*
X139192000Y-73339870D01*
X139035173Y-73324424D01*
X138959773Y-73301552D01*
X138884371Y-73278679D01*
X138745392Y-73204392D01*
X138623581Y-73104425D01*
X138623580Y-73104423D01*
X138623578Y-73104422D01*
X138523607Y-72982605D01*
X138449322Y-72843629D01*
X138449321Y-72843628D01*
X138426448Y-72768226D01*
X138403576Y-72692826D01*
X138392000Y-72575292D01*
X138392000Y-71696707D01*
X138403577Y-71579173D01*
X138449322Y-71428372D01*
X138449322Y-71428371D01*
X138523609Y-71289392D01*
X138623579Y-71167578D01*
X138745393Y-71067608D01*
X138884372Y-70993321D01*
X138959773Y-70970449D01*
X139035174Y-70947576D01*
X139192000Y-70932130D01*
X139348827Y-70947576D01*
X139348827Y-70947576D01*
G37*
G36*
X142532000Y-73336000D02*
X140932000Y-73336000D01*
X140932000Y-70936000D01*
X142532000Y-70936000D01*
X142532000Y-73336000D01*
X142532000Y-73336000D01*
G37*
G36*
X123366432Y-70868022D02*
X123536081Y-70919485D01*
X123692433Y-71003056D01*
X123829475Y-71115525D01*
X123941944Y-71252567D01*
X124025515Y-71408919D01*
X124076978Y-71578568D01*
X124094354Y-71755000D01*
X124076978Y-71931432D01*
X124025515Y-72101081D01*
X123941944Y-72257433D01*
X123829475Y-72394475D01*
X123692433Y-72506944D01*
X123536081Y-72590515D01*
X123366432Y-72641978D01*
X123234211Y-72655000D01*
X123145789Y-72655000D01*
X123013568Y-72641978D01*
X122843919Y-72590515D01*
X122687567Y-72506944D01*
X122550525Y-72394475D01*
X122438056Y-72257433D01*
X122354485Y-72101081D01*
X122303022Y-71931432D01*
X122285646Y-71755000D01*
X122303022Y-71578568D01*
X122354485Y-71408919D01*
X122438056Y-71252567D01*
X122550525Y-71115525D01*
X122687567Y-71003056D01*
X122843919Y-70919485D01*
X123013568Y-70868022D01*
X123145789Y-70855000D01*
X123234211Y-70855000D01*
X123366432Y-70868022D01*
X123366432Y-70868022D01*
G37*
G36*
X128503352Y-70985743D02*
X128648941Y-71046048D01*
X128779973Y-71133601D01*
X128891399Y-71245027D01*
X128978952Y-71376059D01*
X129039257Y-71521648D01*
X129070000Y-71676205D01*
X129070000Y-71833795D01*
X129039257Y-71988352D01*
X128978952Y-72133941D01*
X128891399Y-72264973D01*
X128779973Y-72376399D01*
X128648941Y-72463952D01*
X128503352Y-72524257D01*
X128348795Y-72555000D01*
X128191205Y-72555000D01*
X128036648Y-72524257D01*
X127891059Y-72463952D01*
X127760027Y-72376399D01*
X127648601Y-72264973D01*
X127561048Y-72133941D01*
X127500743Y-71988352D01*
X127470000Y-71833795D01*
X127470000Y-71676205D01*
X127500743Y-71521648D01*
X127561048Y-71376059D01*
X127648601Y-71245027D01*
X127760027Y-71133601D01*
X127891059Y-71046048D01*
X128036648Y-70985743D01*
X128191205Y-70955000D01*
X128348795Y-70955000D01*
X128503352Y-70985743D01*
X128503352Y-70985743D01*
G37*
G36*
X148569352Y-70858743D02*
X148714941Y-70919048D01*
X148845973Y-71006601D01*
X148957399Y-71118027D01*
X149044952Y-71249059D01*
X149105257Y-71394648D01*
X149136000Y-71549205D01*
X149136000Y-71706795D01*
X149105257Y-71861352D01*
X149044952Y-72006941D01*
X148957399Y-72137973D01*
X148845973Y-72249399D01*
X148714941Y-72336952D01*
X148569352Y-72397257D01*
X148414795Y-72428000D01*
X148257205Y-72428000D01*
X148102648Y-72397257D01*
X147957059Y-72336952D01*
X147826027Y-72249399D01*
X147714601Y-72137973D01*
X147627048Y-72006941D01*
X147566743Y-71861352D01*
X147536000Y-71706795D01*
X147536000Y-71549205D01*
X147566743Y-71394648D01*
X147627048Y-71249059D01*
X147714601Y-71118027D01*
X147826027Y-71006601D01*
X147957059Y-70919048D01*
X148102648Y-70858743D01*
X148257205Y-70828000D01*
X148414795Y-70828000D01*
X148569352Y-70858743D01*
X148569352Y-70858743D01*
G37*
M02*
