M48
;DRILL file {KiCad (5.0.2-5)-5} date 2019 February 28, Thursday 23:12:57
;FORMAT={-:-/ absolute / inch / decimal}
FMAT,2
INCH,TZ
T1C0.0157
T2C0.0256
T3C0.0276
T4C0.0315
T5C0.0394
T6C0.0433
T7C0.0520
%
G90
G05
T1
X2.0669Y-5.1181
X2.0669Y-6.6929
X4.2323Y-5.1181
X4.2323Y-6.6929
T2
X3.3465Y-5.315
X3.3465Y-5.365
X3.3465Y-5.415
T3
X3.5433Y-6.2157
X3.5433Y-6.5157
T4
X2.3622Y-5.3346
X2.3622Y-5.4331
X2.8543Y-6.2945
X2.8543Y-6.5945
X2.4606Y-5.6102
X2.6575Y-5.6102
X2.6575Y-5.2165
X2.6575Y-5.4134
X2.8543Y-5.5039
X2.8543Y-6.0039
X2.1654Y-5.6102
X2.3622Y-5.6102
X3.0512Y-6.2992
X3.0512Y-6.3992
X3.0512Y-6.4992
X3.0512Y-6.5992
X3.3512Y-6.2992
X3.3512Y-6.3992
X3.3512Y-6.4992
X3.3512Y-6.5992
X3.0512Y-5.5118
X3.0512Y-6.0118
T5
X3.7402Y-6.0039
X3.7402Y-6.1039
X3.7402Y-6.2039
X3.7402Y-6.3039
T6
X2.2803Y-5.8071
X2.3803Y-5.8071
X2.4803Y-5.8071
X3.8386Y-5.6102
X3.9386Y-5.6102
X4.0386Y-5.6102
T7
X2.3622Y-6.4961
X2.5591Y-6.4961
T0
M30
