G04 #@! TF.GenerationSoftware,KiCad,Pcbnew,(5.0.2-5)-5*
G04 #@! TF.CreationDate,2019-02-28T23:12:48+01:00*
G04 #@! TF.ProjectId,IkeaTradfriLEDdriver,496b6561-5472-4616-9466-72694c454464,rev?*
G04 #@! TF.SameCoordinates,Original*
G04 #@! TF.FileFunction,Legend,Top*
G04 #@! TF.FilePolarity,Positive*
%FSLAX46Y46*%
G04 Gerber Fmt 4.6, Leading zero omitted, Abs format (unit mm)*
G04 Created by KiCad (PCBNEW (5.0.2-5)-5) date 2019 February 28, Thursday 23:12:48*
%MOMM*%
%LPD*%
G01*
G04 APERTURE LIST*
%ADD10C,0.120000*%
%ADD11C,0.150000*%
G04 APERTURE END LIST*
D10*
G04 #@! TO.C,J1*
X68200000Y-158700000D02*
X57350000Y-158700000D01*
X68200000Y-163800000D02*
X68200000Y-158700000D01*
X67700000Y-163500000D02*
X68200000Y-163800000D01*
X67700000Y-168900000D02*
X67700000Y-163500000D01*
X68200000Y-168650000D02*
X67700000Y-168900000D01*
X68200000Y-168700000D02*
X68200000Y-168650000D01*
X68200000Y-170600000D02*
X68200000Y-168700000D01*
X67700000Y-170350000D02*
X68200000Y-170600000D01*
X67700000Y-171300000D02*
X67700000Y-170350000D01*
X57350000Y-171300000D02*
X67700000Y-171300000D01*
X57350000Y-158700000D02*
X57350000Y-171300000D01*
G04 #@! TO.C,U1*
X83560000Y-158670000D02*
X82310000Y-158670000D01*
X83560000Y-168950000D02*
X83560000Y-158670000D01*
X79060000Y-168950000D02*
X83560000Y-168950000D01*
X79060000Y-158670000D02*
X79060000Y-168950000D01*
X80310000Y-158670000D02*
X79060000Y-158670000D01*
X82310000Y-158670000D02*
G75*
G02X80310000Y-158670000I-1000000J0D01*
G01*
G04 #@! TO.C,C1*
X62620000Y-136750000D02*
G75*
G03X62620000Y-136750000I-2620000J0D01*
G01*
X57420000Y-136750000D02*
X62580000Y-136750000D01*
X57420000Y-136710000D02*
X62580000Y-136710000D01*
X57421000Y-136670000D02*
X62579000Y-136670000D01*
X57422000Y-136630000D02*
X62578000Y-136630000D01*
X57424000Y-136590000D02*
X62576000Y-136590000D01*
X57427000Y-136550000D02*
X62573000Y-136550000D01*
X57431000Y-136510000D02*
X58960000Y-136510000D01*
X61040000Y-136510000D02*
X62569000Y-136510000D01*
X57435000Y-136470000D02*
X58960000Y-136470000D01*
X61040000Y-136470000D02*
X62565000Y-136470000D01*
X57439000Y-136430000D02*
X58960000Y-136430000D01*
X61040000Y-136430000D02*
X62561000Y-136430000D01*
X57444000Y-136390000D02*
X58960000Y-136390000D01*
X61040000Y-136390000D02*
X62556000Y-136390000D01*
X57450000Y-136350000D02*
X58960000Y-136350000D01*
X61040000Y-136350000D02*
X62550000Y-136350000D01*
X57457000Y-136310000D02*
X58960000Y-136310000D01*
X61040000Y-136310000D02*
X62543000Y-136310000D01*
X57464000Y-136270000D02*
X58960000Y-136270000D01*
X61040000Y-136270000D02*
X62536000Y-136270000D01*
X57472000Y-136230000D02*
X58960000Y-136230000D01*
X61040000Y-136230000D02*
X62528000Y-136230000D01*
X57480000Y-136190000D02*
X58960000Y-136190000D01*
X61040000Y-136190000D02*
X62520000Y-136190000D01*
X57489000Y-136150000D02*
X58960000Y-136150000D01*
X61040000Y-136150000D02*
X62511000Y-136150000D01*
X57499000Y-136110000D02*
X58960000Y-136110000D01*
X61040000Y-136110000D02*
X62501000Y-136110000D01*
X57509000Y-136070000D02*
X58960000Y-136070000D01*
X61040000Y-136070000D02*
X62491000Y-136070000D01*
X57520000Y-136029000D02*
X58960000Y-136029000D01*
X61040000Y-136029000D02*
X62480000Y-136029000D01*
X57532000Y-135989000D02*
X58960000Y-135989000D01*
X61040000Y-135989000D02*
X62468000Y-135989000D01*
X57545000Y-135949000D02*
X58960000Y-135949000D01*
X61040000Y-135949000D02*
X62455000Y-135949000D01*
X57558000Y-135909000D02*
X58960000Y-135909000D01*
X61040000Y-135909000D02*
X62442000Y-135909000D01*
X57572000Y-135869000D02*
X58960000Y-135869000D01*
X61040000Y-135869000D02*
X62428000Y-135869000D01*
X57586000Y-135829000D02*
X58960000Y-135829000D01*
X61040000Y-135829000D02*
X62414000Y-135829000D01*
X57602000Y-135789000D02*
X58960000Y-135789000D01*
X61040000Y-135789000D02*
X62398000Y-135789000D01*
X57618000Y-135749000D02*
X58960000Y-135749000D01*
X61040000Y-135749000D02*
X62382000Y-135749000D01*
X57635000Y-135709000D02*
X58960000Y-135709000D01*
X61040000Y-135709000D02*
X62365000Y-135709000D01*
X57652000Y-135669000D02*
X58960000Y-135669000D01*
X61040000Y-135669000D02*
X62348000Y-135669000D01*
X57671000Y-135629000D02*
X58960000Y-135629000D01*
X61040000Y-135629000D02*
X62329000Y-135629000D01*
X57690000Y-135589000D02*
X58960000Y-135589000D01*
X61040000Y-135589000D02*
X62310000Y-135589000D01*
X57710000Y-135549000D02*
X58960000Y-135549000D01*
X61040000Y-135549000D02*
X62290000Y-135549000D01*
X57732000Y-135509000D02*
X58960000Y-135509000D01*
X61040000Y-135509000D02*
X62268000Y-135509000D01*
X57753000Y-135469000D02*
X58960000Y-135469000D01*
X61040000Y-135469000D02*
X62247000Y-135469000D01*
X57776000Y-135429000D02*
X58960000Y-135429000D01*
X61040000Y-135429000D02*
X62224000Y-135429000D01*
X57800000Y-135389000D02*
X58960000Y-135389000D01*
X61040000Y-135389000D02*
X62200000Y-135389000D01*
X57825000Y-135349000D02*
X58960000Y-135349000D01*
X61040000Y-135349000D02*
X62175000Y-135349000D01*
X57851000Y-135309000D02*
X58960000Y-135309000D01*
X61040000Y-135309000D02*
X62149000Y-135309000D01*
X57878000Y-135269000D02*
X58960000Y-135269000D01*
X61040000Y-135269000D02*
X62122000Y-135269000D01*
X57905000Y-135229000D02*
X58960000Y-135229000D01*
X61040000Y-135229000D02*
X62095000Y-135229000D01*
X57935000Y-135189000D02*
X58960000Y-135189000D01*
X61040000Y-135189000D02*
X62065000Y-135189000D01*
X57965000Y-135149000D02*
X58960000Y-135149000D01*
X61040000Y-135149000D02*
X62035000Y-135149000D01*
X57996000Y-135109000D02*
X58960000Y-135109000D01*
X61040000Y-135109000D02*
X62004000Y-135109000D01*
X58029000Y-135069000D02*
X58960000Y-135069000D01*
X61040000Y-135069000D02*
X61971000Y-135069000D01*
X58063000Y-135029000D02*
X58960000Y-135029000D01*
X61040000Y-135029000D02*
X61937000Y-135029000D01*
X58099000Y-134989000D02*
X58960000Y-134989000D01*
X61040000Y-134989000D02*
X61901000Y-134989000D01*
X58136000Y-134949000D02*
X58960000Y-134949000D01*
X61040000Y-134949000D02*
X61864000Y-134949000D01*
X58174000Y-134909000D02*
X58960000Y-134909000D01*
X61040000Y-134909000D02*
X61826000Y-134909000D01*
X58215000Y-134869000D02*
X58960000Y-134869000D01*
X61040000Y-134869000D02*
X61785000Y-134869000D01*
X58257000Y-134829000D02*
X58960000Y-134829000D01*
X61040000Y-134829000D02*
X61743000Y-134829000D01*
X58301000Y-134789000D02*
X58960000Y-134789000D01*
X61040000Y-134789000D02*
X61699000Y-134789000D01*
X58347000Y-134749000D02*
X58960000Y-134749000D01*
X61040000Y-134749000D02*
X61653000Y-134749000D01*
X58395000Y-134709000D02*
X58960000Y-134709000D01*
X61040000Y-134709000D02*
X61605000Y-134709000D01*
X58446000Y-134669000D02*
X58960000Y-134669000D01*
X61040000Y-134669000D02*
X61554000Y-134669000D01*
X58500000Y-134629000D02*
X58960000Y-134629000D01*
X61040000Y-134629000D02*
X61500000Y-134629000D01*
X58557000Y-134589000D02*
X58960000Y-134589000D01*
X61040000Y-134589000D02*
X61443000Y-134589000D01*
X58617000Y-134549000D02*
X58960000Y-134549000D01*
X61040000Y-134549000D02*
X61383000Y-134549000D01*
X58681000Y-134509000D02*
X58960000Y-134509000D01*
X61040000Y-134509000D02*
X61319000Y-134509000D01*
X58749000Y-134469000D02*
X58960000Y-134469000D01*
X61040000Y-134469000D02*
X61251000Y-134469000D01*
X58822000Y-134429000D02*
X61178000Y-134429000D01*
X58902000Y-134389000D02*
X61098000Y-134389000D01*
X58989000Y-134349000D02*
X61011000Y-134349000D01*
X59085000Y-134309000D02*
X60915000Y-134309000D01*
X59195000Y-134269000D02*
X60805000Y-134269000D01*
X59323000Y-134229000D02*
X60677000Y-134229000D01*
X59482000Y-134189000D02*
X60518000Y-134189000D01*
X59716000Y-134149000D02*
X60284000Y-134149000D01*
X58525000Y-139554775D02*
X58525000Y-139054775D01*
X58275000Y-139304775D02*
X58775000Y-139304775D01*
G04 #@! TO.C,C2*
X61120000Y-143620000D02*
X53880000Y-143620000D01*
X61120000Y-141380000D02*
X53880000Y-141380000D01*
X61120000Y-143620000D02*
X61120000Y-141380000D01*
X53880000Y-143620000D02*
X53880000Y-141380000D01*
G04 #@! TO.C,C3*
X68620000Y-141380000D02*
X68620000Y-143620000D01*
X61380000Y-141380000D02*
X61380000Y-143620000D01*
X61380000Y-143620000D02*
X68620000Y-143620000D01*
X61380000Y-141380000D02*
X68620000Y-141380000D01*
G04 #@! TO.C,C4*
X71620000Y-135000000D02*
G75*
G03X71620000Y-135000000I-4120000J0D01*
G01*
X63420000Y-135000000D02*
X71580000Y-135000000D01*
X63420000Y-134960000D02*
X71580000Y-134960000D01*
X63420000Y-134920000D02*
X71580000Y-134920000D01*
X63421000Y-134880000D02*
X71579000Y-134880000D01*
X63423000Y-134840000D02*
X71577000Y-134840000D01*
X63424000Y-134800000D02*
X71576000Y-134800000D01*
X63426000Y-134760000D02*
X71574000Y-134760000D01*
X63429000Y-134720000D02*
X71571000Y-134720000D01*
X63432000Y-134680000D02*
X71568000Y-134680000D01*
X63435000Y-134640000D02*
X71565000Y-134640000D01*
X63439000Y-134600000D02*
X71561000Y-134600000D01*
X63443000Y-134560000D02*
X71557000Y-134560000D01*
X63448000Y-134520000D02*
X71552000Y-134520000D01*
X63452000Y-134480000D02*
X71548000Y-134480000D01*
X63458000Y-134440000D02*
X71542000Y-134440000D01*
X63463000Y-134400000D02*
X71537000Y-134400000D01*
X63470000Y-134360000D02*
X71530000Y-134360000D01*
X63476000Y-134320000D02*
X71524000Y-134320000D01*
X63483000Y-134279000D02*
X71517000Y-134279000D01*
X63490000Y-134239000D02*
X71510000Y-134239000D01*
X63498000Y-134199000D02*
X71502000Y-134199000D01*
X63506000Y-134159000D02*
X71494000Y-134159000D01*
X63515000Y-134119000D02*
X71485000Y-134119000D01*
X63524000Y-134079000D02*
X71476000Y-134079000D01*
X63533000Y-134039000D02*
X71467000Y-134039000D01*
X63543000Y-133999000D02*
X71457000Y-133999000D01*
X63553000Y-133959000D02*
X71447000Y-133959000D01*
X63564000Y-133919000D02*
X71436000Y-133919000D01*
X63575000Y-133879000D02*
X71425000Y-133879000D01*
X63586000Y-133839000D02*
X71414000Y-133839000D01*
X63598000Y-133799000D02*
X71402000Y-133799000D01*
X63611000Y-133759000D02*
X71389000Y-133759000D01*
X63623000Y-133719000D02*
X71377000Y-133719000D01*
X63637000Y-133679000D02*
X71363000Y-133679000D01*
X63650000Y-133639000D02*
X71350000Y-133639000D01*
X63665000Y-133599000D02*
X71335000Y-133599000D01*
X63679000Y-133559000D02*
X71321000Y-133559000D01*
X63695000Y-133519000D02*
X66460000Y-133519000D01*
X68540000Y-133519000D02*
X71305000Y-133519000D01*
X63710000Y-133479000D02*
X66460000Y-133479000D01*
X68540000Y-133479000D02*
X71290000Y-133479000D01*
X63726000Y-133439000D02*
X66460000Y-133439000D01*
X68540000Y-133439000D02*
X71274000Y-133439000D01*
X63743000Y-133399000D02*
X66460000Y-133399000D01*
X68540000Y-133399000D02*
X71257000Y-133399000D01*
X63760000Y-133359000D02*
X66460000Y-133359000D01*
X68540000Y-133359000D02*
X71240000Y-133359000D01*
X63778000Y-133319000D02*
X66460000Y-133319000D01*
X68540000Y-133319000D02*
X71222000Y-133319000D01*
X63796000Y-133279000D02*
X66460000Y-133279000D01*
X68540000Y-133279000D02*
X71204000Y-133279000D01*
X63814000Y-133239000D02*
X66460000Y-133239000D01*
X68540000Y-133239000D02*
X71186000Y-133239000D01*
X63834000Y-133199000D02*
X66460000Y-133199000D01*
X68540000Y-133199000D02*
X71166000Y-133199000D01*
X63853000Y-133159000D02*
X66460000Y-133159000D01*
X68540000Y-133159000D02*
X71147000Y-133159000D01*
X63873000Y-133119000D02*
X66460000Y-133119000D01*
X68540000Y-133119000D02*
X71127000Y-133119000D01*
X63894000Y-133079000D02*
X66460000Y-133079000D01*
X68540000Y-133079000D02*
X71106000Y-133079000D01*
X63916000Y-133039000D02*
X66460000Y-133039000D01*
X68540000Y-133039000D02*
X71084000Y-133039000D01*
X63938000Y-132999000D02*
X66460000Y-132999000D01*
X68540000Y-132999000D02*
X71062000Y-132999000D01*
X63960000Y-132959000D02*
X66460000Y-132959000D01*
X68540000Y-132959000D02*
X71040000Y-132959000D01*
X63983000Y-132919000D02*
X66460000Y-132919000D01*
X68540000Y-132919000D02*
X71017000Y-132919000D01*
X64007000Y-132879000D02*
X66460000Y-132879000D01*
X68540000Y-132879000D02*
X70993000Y-132879000D01*
X64031000Y-132839000D02*
X66460000Y-132839000D01*
X68540000Y-132839000D02*
X70969000Y-132839000D01*
X64056000Y-132799000D02*
X66460000Y-132799000D01*
X68540000Y-132799000D02*
X70944000Y-132799000D01*
X64082000Y-132759000D02*
X66460000Y-132759000D01*
X68540000Y-132759000D02*
X70918000Y-132759000D01*
X64108000Y-132719000D02*
X66460000Y-132719000D01*
X68540000Y-132719000D02*
X70892000Y-132719000D01*
X64135000Y-132679000D02*
X66460000Y-132679000D01*
X68540000Y-132679000D02*
X70865000Y-132679000D01*
X64162000Y-132639000D02*
X66460000Y-132639000D01*
X68540000Y-132639000D02*
X70838000Y-132639000D01*
X64191000Y-132599000D02*
X66460000Y-132599000D01*
X68540000Y-132599000D02*
X70809000Y-132599000D01*
X64220000Y-132559000D02*
X66460000Y-132559000D01*
X68540000Y-132559000D02*
X70780000Y-132559000D01*
X64250000Y-132519000D02*
X66460000Y-132519000D01*
X68540000Y-132519000D02*
X70750000Y-132519000D01*
X64280000Y-132479000D02*
X66460000Y-132479000D01*
X68540000Y-132479000D02*
X70720000Y-132479000D01*
X64311000Y-132439000D02*
X66460000Y-132439000D01*
X68540000Y-132439000D02*
X70689000Y-132439000D01*
X64344000Y-132399000D02*
X66460000Y-132399000D01*
X68540000Y-132399000D02*
X70656000Y-132399000D01*
X64376000Y-132359000D02*
X66460000Y-132359000D01*
X68540000Y-132359000D02*
X70624000Y-132359000D01*
X64410000Y-132319000D02*
X66460000Y-132319000D01*
X68540000Y-132319000D02*
X70590000Y-132319000D01*
X64445000Y-132279000D02*
X66460000Y-132279000D01*
X68540000Y-132279000D02*
X70555000Y-132279000D01*
X64481000Y-132239000D02*
X66460000Y-132239000D01*
X68540000Y-132239000D02*
X70519000Y-132239000D01*
X64517000Y-132199000D02*
X66460000Y-132199000D01*
X68540000Y-132199000D02*
X70483000Y-132199000D01*
X64555000Y-132159000D02*
X66460000Y-132159000D01*
X68540000Y-132159000D02*
X70445000Y-132159000D01*
X64593000Y-132119000D02*
X66460000Y-132119000D01*
X68540000Y-132119000D02*
X70407000Y-132119000D01*
X64633000Y-132079000D02*
X66460000Y-132079000D01*
X68540000Y-132079000D02*
X70367000Y-132079000D01*
X64674000Y-132039000D02*
X66460000Y-132039000D01*
X68540000Y-132039000D02*
X70326000Y-132039000D01*
X64716000Y-131999000D02*
X66460000Y-131999000D01*
X68540000Y-131999000D02*
X70284000Y-131999000D01*
X64759000Y-131959000D02*
X66460000Y-131959000D01*
X68540000Y-131959000D02*
X70241000Y-131959000D01*
X64803000Y-131919000D02*
X66460000Y-131919000D01*
X68540000Y-131919000D02*
X70197000Y-131919000D01*
X64849000Y-131879000D02*
X66460000Y-131879000D01*
X68540000Y-131879000D02*
X70151000Y-131879000D01*
X64896000Y-131839000D02*
X66460000Y-131839000D01*
X68540000Y-131839000D02*
X70104000Y-131839000D01*
X64944000Y-131799000D02*
X66460000Y-131799000D01*
X68540000Y-131799000D02*
X70056000Y-131799000D01*
X64995000Y-131759000D02*
X66460000Y-131759000D01*
X68540000Y-131759000D02*
X70005000Y-131759000D01*
X65046000Y-131719000D02*
X66460000Y-131719000D01*
X68540000Y-131719000D02*
X69954000Y-131719000D01*
X65100000Y-131679000D02*
X66460000Y-131679000D01*
X68540000Y-131679000D02*
X69900000Y-131679000D01*
X65155000Y-131639000D02*
X66460000Y-131639000D01*
X68540000Y-131639000D02*
X69845000Y-131639000D01*
X65213000Y-131599000D02*
X66460000Y-131599000D01*
X68540000Y-131599000D02*
X69787000Y-131599000D01*
X65272000Y-131559000D02*
X66460000Y-131559000D01*
X68540000Y-131559000D02*
X69728000Y-131559000D01*
X65334000Y-131519000D02*
X66460000Y-131519000D01*
X68540000Y-131519000D02*
X69666000Y-131519000D01*
X65398000Y-131479000D02*
X66460000Y-131479000D01*
X68540000Y-131479000D02*
X69602000Y-131479000D01*
X65466000Y-131439000D02*
X69534000Y-131439000D01*
X65536000Y-131399000D02*
X69464000Y-131399000D01*
X65610000Y-131359000D02*
X69390000Y-131359000D01*
X65687000Y-131319000D02*
X69313000Y-131319000D01*
X65769000Y-131279000D02*
X69231000Y-131279000D01*
X65855000Y-131239000D02*
X69145000Y-131239000D01*
X65948000Y-131199000D02*
X69052000Y-131199000D01*
X66047000Y-131159000D02*
X68953000Y-131159000D01*
X66154000Y-131119000D02*
X68846000Y-131119000D01*
X66271000Y-131079000D02*
X68729000Y-131079000D01*
X66402000Y-131039000D02*
X68598000Y-131039000D01*
X66552000Y-130999000D02*
X68448000Y-130999000D01*
X66732000Y-130959000D02*
X68268000Y-130959000D01*
X66967000Y-130919000D02*
X68033000Y-130919000D01*
X65185000Y-139409698D02*
X65185000Y-138609698D01*
X64785000Y-139009698D02*
X65585000Y-139009698D01*
G04 #@! TO.C,D1*
X71380000Y-165810000D02*
X73620000Y-165810000D01*
X73620000Y-165810000D02*
X73620000Y-161570000D01*
X73620000Y-161570000D02*
X71380000Y-161570000D01*
X71380000Y-161570000D02*
X71380000Y-165810000D01*
X72500000Y-166460000D02*
X72500000Y-165810000D01*
X72500000Y-160920000D02*
X72500000Y-161570000D01*
X71380000Y-165090000D02*
X73620000Y-165090000D01*
X71380000Y-164970000D02*
X73620000Y-164970000D01*
X71380000Y-165210000D02*
X73620000Y-165210000D01*
G04 #@! TO.C,J2*
X83890000Y-138235000D02*
X84692470Y-138235000D01*
X85307530Y-138235000D02*
X86110000Y-138235000D01*
X83890000Y-135760000D02*
X83890000Y-138235000D01*
X86110000Y-135760000D02*
X86110000Y-138235000D01*
X83890000Y-135760000D02*
X84436529Y-135760000D01*
X85563471Y-135760000D02*
X86110000Y-135760000D01*
X83890000Y-135000000D02*
X83890000Y-134240000D01*
X83890000Y-134240000D02*
X85000000Y-134240000D01*
G04 #@! TO.C,J3*
X96440000Y-151170000D02*
X96440000Y-161450000D01*
X96440000Y-161450000D02*
X99100000Y-161450000D01*
X99100000Y-161450000D02*
X99100000Y-151170000D01*
X99100000Y-151170000D02*
X96440000Y-151170000D01*
X99100000Y-152120000D02*
X105100000Y-152120000D01*
X105100000Y-152120000D02*
X105100000Y-152880000D01*
X105100000Y-152880000D02*
X99100000Y-152880000D01*
X99100000Y-152180000D02*
X105100000Y-152180000D01*
X99100000Y-152300000D02*
X105100000Y-152300000D01*
X99100000Y-152420000D02*
X105100000Y-152420000D01*
X99100000Y-152540000D02*
X105100000Y-152540000D01*
X99100000Y-152660000D02*
X105100000Y-152660000D01*
X99100000Y-152780000D02*
X105100000Y-152780000D01*
X96110000Y-152120000D02*
X96440000Y-152120000D01*
X96110000Y-152880000D02*
X96440000Y-152880000D01*
X96440000Y-153770000D02*
X99100000Y-153770000D01*
X99100000Y-154660000D02*
X105100000Y-154660000D01*
X105100000Y-154660000D02*
X105100000Y-155420000D01*
X105100000Y-155420000D02*
X99100000Y-155420000D01*
X96042929Y-154660000D02*
X96440000Y-154660000D01*
X96042929Y-155420000D02*
X96440000Y-155420000D01*
X96440000Y-156310000D02*
X99100000Y-156310000D01*
X99100000Y-157200000D02*
X105100000Y-157200000D01*
X105100000Y-157200000D02*
X105100000Y-157960000D01*
X105100000Y-157960000D02*
X99100000Y-157960000D01*
X96042929Y-157200000D02*
X96440000Y-157200000D01*
X96042929Y-157960000D02*
X96440000Y-157960000D01*
X96440000Y-158850000D02*
X99100000Y-158850000D01*
X99100000Y-159740000D02*
X105100000Y-159740000D01*
X105100000Y-159740000D02*
X105100000Y-160500000D01*
X105100000Y-160500000D02*
X99100000Y-160500000D01*
X96042929Y-159740000D02*
X96440000Y-159740000D01*
X96042929Y-160500000D02*
X96440000Y-160500000D01*
X93730000Y-152500000D02*
X93730000Y-151230000D01*
X93730000Y-151230000D02*
X95000000Y-151230000D01*
G04 #@! TO.C,Q1*
X94920000Y-139230000D02*
X105160000Y-139230000D01*
X94920000Y-143871000D02*
X105160000Y-143871000D01*
X94920000Y-139230000D02*
X94920000Y-143871000D01*
X105160000Y-139230000D02*
X105160000Y-143871000D01*
X94920000Y-140740000D02*
X105160000Y-140740000D01*
X98190000Y-139230000D02*
X98190000Y-140740000D01*
X101891000Y-139230000D02*
X101891000Y-140740000D01*
G04 #@! TO.C,R1*
X70780000Y-150770000D02*
X74220000Y-150770000D01*
X74220000Y-150770000D02*
X74220000Y-141530000D01*
X74220000Y-141530000D02*
X70780000Y-141530000D01*
X70780000Y-141530000D02*
X70780000Y-150770000D01*
X72500000Y-151460000D02*
X72500000Y-150770000D01*
X72500000Y-140840000D02*
X72500000Y-141530000D01*
G04 #@! TO.C,R3*
X77500000Y-151660000D02*
X77500000Y-150970000D01*
X77500000Y-141040000D02*
X77500000Y-141730000D01*
X79220000Y-150970000D02*
X79220000Y-141730000D01*
X75780000Y-150970000D02*
X79220000Y-150970000D01*
X75780000Y-141730000D02*
X75780000Y-150970000D01*
X79220000Y-141730000D02*
X75780000Y-141730000D01*
G04 #@! TO.C,R4*
X89080000Y-163610000D02*
X90920000Y-163610000D01*
X90920000Y-163610000D02*
X90920000Y-159770000D01*
X90920000Y-159770000D02*
X89080000Y-159770000D01*
X89080000Y-159770000D02*
X89080000Y-163610000D01*
X90000000Y-164560000D02*
X90000000Y-163610000D01*
X90000000Y-158820000D02*
X90000000Y-159770000D01*
G04 #@! TO.C,U2*
X58609000Y-150770000D02*
X58609000Y-149260000D01*
X62310000Y-150770000D02*
X62310000Y-149260000D01*
X65580000Y-149260000D02*
X55340000Y-149260000D01*
X55340000Y-150770000D02*
X55340000Y-146129000D01*
X65580000Y-150770000D02*
X65580000Y-146129000D01*
X65580000Y-146129000D02*
X55340000Y-146129000D01*
X65580000Y-150770000D02*
X55340000Y-150770000D01*
G04 #@! TO.C,J1*
D11*
X57746666Y-157462380D02*
X57746666Y-158176666D01*
X57699047Y-158319523D01*
X57603809Y-158414761D01*
X57460952Y-158462380D01*
X57365714Y-158462380D01*
X58746666Y-158462380D02*
X58175238Y-158462380D01*
X58460952Y-158462380D02*
X58460952Y-157462380D01*
X58365714Y-157605238D01*
X58270476Y-157700476D01*
X58175238Y-157748095D01*
G04 #@! TO.C,U1*
X80548095Y-157122380D02*
X80548095Y-157931904D01*
X80595714Y-158027142D01*
X80643333Y-158074761D01*
X80738571Y-158122380D01*
X80929047Y-158122380D01*
X81024285Y-158074761D01*
X81071904Y-158027142D01*
X81119523Y-157931904D01*
X81119523Y-157122380D01*
X82119523Y-158122380D02*
X81548095Y-158122380D01*
X81833809Y-158122380D02*
X81833809Y-157122380D01*
X81738571Y-157265238D01*
X81643333Y-157360476D01*
X81548095Y-157408095D01*
G04 #@! TO.C,C1*
X56607142Y-136916666D02*
X56654761Y-136964285D01*
X56702380Y-137107142D01*
X56702380Y-137202380D01*
X56654761Y-137345238D01*
X56559523Y-137440476D01*
X56464285Y-137488095D01*
X56273809Y-137535714D01*
X56130952Y-137535714D01*
X55940476Y-137488095D01*
X55845238Y-137440476D01*
X55750000Y-137345238D01*
X55702380Y-137202380D01*
X55702380Y-137107142D01*
X55750000Y-136964285D01*
X55797619Y-136916666D01*
X56702380Y-135964285D02*
X56702380Y-136535714D01*
X56702380Y-136250000D02*
X55702380Y-136250000D01*
X55845238Y-136345238D01*
X55940476Y-136440476D01*
X55988095Y-136535714D01*
G04 #@! TO.C,C2*
X57333333Y-145107142D02*
X57285714Y-145154761D01*
X57142857Y-145202380D01*
X57047619Y-145202380D01*
X56904761Y-145154761D01*
X56809523Y-145059523D01*
X56761904Y-144964285D01*
X56714285Y-144773809D01*
X56714285Y-144630952D01*
X56761904Y-144440476D01*
X56809523Y-144345238D01*
X56904761Y-144250000D01*
X57047619Y-144202380D01*
X57142857Y-144202380D01*
X57285714Y-144250000D01*
X57333333Y-144297619D01*
X57714285Y-144297619D02*
X57761904Y-144250000D01*
X57857142Y-144202380D01*
X58095238Y-144202380D01*
X58190476Y-144250000D01*
X58238095Y-144297619D01*
X58285714Y-144392857D01*
X58285714Y-144488095D01*
X58238095Y-144630952D01*
X57666666Y-145202380D01*
X58285714Y-145202380D01*
G04 #@! TO.C,C3*
X64833333Y-140607142D02*
X64785714Y-140654761D01*
X64642857Y-140702380D01*
X64547619Y-140702380D01*
X64404761Y-140654761D01*
X64309523Y-140559523D01*
X64261904Y-140464285D01*
X64214285Y-140273809D01*
X64214285Y-140130952D01*
X64261904Y-139940476D01*
X64309523Y-139845238D01*
X64404761Y-139750000D01*
X64547619Y-139702380D01*
X64642857Y-139702380D01*
X64785714Y-139750000D01*
X64833333Y-139797619D01*
X65166666Y-139702380D02*
X65785714Y-139702380D01*
X65452380Y-140083333D01*
X65595238Y-140083333D01*
X65690476Y-140130952D01*
X65738095Y-140178571D01*
X65785714Y-140273809D01*
X65785714Y-140511904D01*
X65738095Y-140607142D01*
X65690476Y-140654761D01*
X65595238Y-140702380D01*
X65309523Y-140702380D01*
X65214285Y-140654761D01*
X65166666Y-140607142D01*
G04 #@! TO.C,C4*
X62607142Y-135166666D02*
X62654761Y-135214285D01*
X62702380Y-135357142D01*
X62702380Y-135452380D01*
X62654761Y-135595238D01*
X62559523Y-135690476D01*
X62464285Y-135738095D01*
X62273809Y-135785714D01*
X62130952Y-135785714D01*
X61940476Y-135738095D01*
X61845238Y-135690476D01*
X61750000Y-135595238D01*
X61702380Y-135452380D01*
X61702380Y-135357142D01*
X61750000Y-135214285D01*
X61797619Y-135166666D01*
X62035714Y-134309523D02*
X62702380Y-134309523D01*
X61654761Y-134547619D02*
X62369047Y-134785714D01*
X62369047Y-134166666D01*
G04 #@! TO.C,D1*
X70832380Y-164428095D02*
X69832380Y-164428095D01*
X69832380Y-164190000D01*
X69880000Y-164047142D01*
X69975238Y-163951904D01*
X70070476Y-163904285D01*
X70260952Y-163856666D01*
X70403809Y-163856666D01*
X70594285Y-163904285D01*
X70689523Y-163951904D01*
X70784761Y-164047142D01*
X70832380Y-164190000D01*
X70832380Y-164428095D01*
X70832380Y-162904285D02*
X70832380Y-163475714D01*
X70832380Y-163190000D02*
X69832380Y-163190000D01*
X69975238Y-163285238D01*
X70070476Y-163380476D01*
X70118095Y-163475714D01*
X71152380Y-167761904D02*
X70152380Y-167761904D01*
X71152380Y-167190476D02*
X70580952Y-167619047D01*
X70152380Y-167190476D02*
X70723809Y-167761904D01*
G04 #@! TO.C,J2*
X84666666Y-132757380D02*
X84666666Y-133471666D01*
X84619047Y-133614523D01*
X84523809Y-133709761D01*
X84380952Y-133757380D01*
X84285714Y-133757380D01*
X85095238Y-132852619D02*
X85142857Y-132805000D01*
X85238095Y-132757380D01*
X85476190Y-132757380D01*
X85571428Y-132805000D01*
X85619047Y-132852619D01*
X85666666Y-132947857D01*
X85666666Y-133043095D01*
X85619047Y-133185952D01*
X85047619Y-133757380D01*
X85666666Y-133757380D01*
G04 #@! TO.C,J3*
X99051666Y-149682380D02*
X99051666Y-150396666D01*
X99004047Y-150539523D01*
X98908809Y-150634761D01*
X98765952Y-150682380D01*
X98670714Y-150682380D01*
X99432619Y-149682380D02*
X100051666Y-149682380D01*
X99718333Y-150063333D01*
X99861190Y-150063333D01*
X99956428Y-150110952D01*
X100004047Y-150158571D01*
X100051666Y-150253809D01*
X100051666Y-150491904D01*
X100004047Y-150587142D01*
X99956428Y-150634761D01*
X99861190Y-150682380D01*
X99575476Y-150682380D01*
X99480238Y-150634761D01*
X99432619Y-150587142D01*
G04 #@! TO.C,Q1*
X99944761Y-138777619D02*
X99849523Y-138730000D01*
X99754285Y-138634761D01*
X99611428Y-138491904D01*
X99516190Y-138444285D01*
X99420952Y-138444285D01*
X99468571Y-138682380D02*
X99373333Y-138634761D01*
X99278095Y-138539523D01*
X99230476Y-138349047D01*
X99230476Y-138015714D01*
X99278095Y-137825238D01*
X99373333Y-137730000D01*
X99468571Y-137682380D01*
X99659047Y-137682380D01*
X99754285Y-137730000D01*
X99849523Y-137825238D01*
X99897142Y-138015714D01*
X99897142Y-138349047D01*
X99849523Y-138539523D01*
X99754285Y-138634761D01*
X99659047Y-138682380D01*
X99468571Y-138682380D01*
X100849523Y-138682380D02*
X100278095Y-138682380D01*
X100563809Y-138682380D02*
X100563809Y-137682380D01*
X100468571Y-137825238D01*
X100373333Y-137920476D01*
X100278095Y-137968095D01*
G04 #@! TO.C,R1*
X70232380Y-146316666D02*
X69756190Y-146650000D01*
X70232380Y-146888095D02*
X69232380Y-146888095D01*
X69232380Y-146507142D01*
X69280000Y-146411904D01*
X69327619Y-146364285D01*
X69422857Y-146316666D01*
X69565714Y-146316666D01*
X69660952Y-146364285D01*
X69708571Y-146411904D01*
X69756190Y-146507142D01*
X69756190Y-146888095D01*
X70232380Y-145364285D02*
X70232380Y-145935714D01*
X70232380Y-145650000D02*
X69232380Y-145650000D01*
X69375238Y-145745238D01*
X69470476Y-145840476D01*
X69518095Y-145935714D01*
G04 #@! TO.C,R3*
X80672380Y-146516666D02*
X80196190Y-146850000D01*
X80672380Y-147088095D02*
X79672380Y-147088095D01*
X79672380Y-146707142D01*
X79720000Y-146611904D01*
X79767619Y-146564285D01*
X79862857Y-146516666D01*
X80005714Y-146516666D01*
X80100952Y-146564285D01*
X80148571Y-146611904D01*
X80196190Y-146707142D01*
X80196190Y-147088095D01*
X79672380Y-146183333D02*
X79672380Y-145564285D01*
X80053333Y-145897619D01*
X80053333Y-145754761D01*
X80100952Y-145659523D01*
X80148571Y-145611904D01*
X80243809Y-145564285D01*
X80481904Y-145564285D01*
X80577142Y-145611904D01*
X80624761Y-145659523D01*
X80672380Y-145754761D01*
X80672380Y-146040476D01*
X80624761Y-146135714D01*
X80577142Y-146183333D01*
G04 #@! TO.C,R4*
X88532380Y-161856666D02*
X88056190Y-162190000D01*
X88532380Y-162428095D02*
X87532380Y-162428095D01*
X87532380Y-162047142D01*
X87580000Y-161951904D01*
X87627619Y-161904285D01*
X87722857Y-161856666D01*
X87865714Y-161856666D01*
X87960952Y-161904285D01*
X88008571Y-161951904D01*
X88056190Y-162047142D01*
X88056190Y-162428095D01*
X87865714Y-160999523D02*
X88532380Y-160999523D01*
X87484761Y-161237619D02*
X88199047Y-161475714D01*
X88199047Y-160856666D01*
G04 #@! TO.C,U2*
X59698095Y-151222380D02*
X59698095Y-152031904D01*
X59745714Y-152127142D01*
X59793333Y-152174761D01*
X59888571Y-152222380D01*
X60079047Y-152222380D01*
X60174285Y-152174761D01*
X60221904Y-152127142D01*
X60269523Y-152031904D01*
X60269523Y-151222380D01*
X60698095Y-151317619D02*
X60745714Y-151270000D01*
X60840952Y-151222380D01*
X61079047Y-151222380D01*
X61174285Y-151270000D01*
X61221904Y-151317619D01*
X61269523Y-151412857D01*
X61269523Y-151508095D01*
X61221904Y-151650952D01*
X60650476Y-152222380D01*
X61269523Y-152222380D01*
G04 #@! TD*
M02*
