M48
;DRILL file {KiCad (5.0.2-5)-5} date 2019 February 27, Wednesday 22:15:34
;FORMAT={-:-/ absolute / inch / decimal}
FMAT,2
INCH,TZ
T1C0.0256
T2C0.0276
T3C0.0295
T4C0.0315
T5C0.0354
T6C0.0394
T7C0.0433
T8C0.0591
%
G90
G05
T1
X5.825Y-4.1
X5.875Y-4.1
X5.925Y-4.1
T2
X6.275Y-3.5
X6.575Y-3.5
T3
X6.075Y-3.45
X6.075Y-3.55
X6.125Y-3.5
T4
X3.95Y-2.925
X3.95Y-4.1
X7.075Y-2.925
X7.075Y-4.1
X5.05Y-2.825
X5.05Y-3.325
X5.0031Y-3.925
X5.0031Y-4.1219
X5.84Y-2.82
X5.84Y-3.32
X5.125Y-3.825
X5.125Y-4.0219
X5.4Y-3.5031
X5.4Y-3.7
X5.28Y-2.84
X5.28Y-3.14
X5.38Y-2.84
X5.38Y-3.14
X5.48Y-2.84
X5.48Y-3.14
X5.58Y-2.84
X5.58Y-3.14
X5.05Y-3.6
X5.1484Y-3.6
X5.175Y-3.325
X5.675Y-3.325
T5
X4.85Y-2.825
X4.85Y-3.325
T6
X6.825Y-3.6
X6.825Y-3.7
X6.825Y-3.8
X6.825Y-3.9
T7
X4.875Y-3.7
X4.875Y-3.8
X4.875Y-3.9
X6.05Y-2.975
X6.05Y-3.075
X6.05Y-3.175
T8
X4.275Y-3.275
X4.275Y-3.
T0
M30
